<svg xmlns="http://www.w3.org/2000/svg" xmlns:xlink="http://www.w3.org/1999/xlink" width="394" height="99" viewBox="0 0 394 99">
    <defs>
        <path id="a" d="M0 0h393.901v98.315H.001z"/>
    </defs>
    <g fill="none" fill-rule="evenodd">
        <mask id="b" fill="#fff">
            <use xlink:href="#a"/>
        </mask>
        <path fill="#000" d="M10.633 84.993h76.126V41.78H10.633v43.213zm-.329 3.806h76.784a3.481 3.481 0 0 0 3.477-3.477v-43.87a3.481 3.481 0 0 0-3.477-3.478H10.304a3.48 3.48 0 0 0-3.477 3.477v43.871a3.48 3.48 0 0 0 3.477 3.477zM95.172 91.375H60.856c-.011.08-.03.159-.056.237-.388 1.119-1.185 1.826-2.056 1.826H38.649c-.853 0-1.636-.678-2.033-1.76l-.018-.048a1.168 1.168 0 0 1-.061-.255H2.22c-1.668 0-2.738 1.592-1.962 2.917l.063.106c1.413 2.41 4.196 3.918 7.228 3.918h82.295c3.099 0 5.93-1.574 7.312-4.064.734-1.323-.338-2.877-1.984-2.877M201.662 96.268l-6.228-3.803c-1.774-1.084-2.813-2.752-2.813-4.518v-2.574l-6.038.317a177.379 177.379 0 0 1-18.453 0l-6.038-.317v2.574c0 1.766-1.04 3.434-2.815 4.518l-6.227 3.803c-1.095.668-.494 2.047.892 2.047h46.827c1.386 0 1.987-1.379.893-2.047M114.749 74.038h125.213V4.3H114.749v69.738zM240.8 0H113.912c-1.801 0-3.262 1.485-3.262 3.317V75.83c0 1.748 1.334 3.196 3.049 3.31l54.63 3.64c6.011.401 12.042.401 18.054 0l54.63-3.64c1.715-.114 3.049-1.562 3.049-3.31V3.317c0-1.832-1.46-3.317-3.262-3.317zM265.768 91.212h33.034V39.016h-33.034v52.196zm18.939 4.225c0 .897-.729 1.626-1.626 1.626h-1.592a1.627 1.627 0 0 1-1.626-1.626v-1.593c0-.897.729-1.626 1.626-1.626h1.592c.897 0 1.626.73 1.626 1.626v1.593zm10.824-63.349h-26.492a4.506 4.506 0 0 0-4.505 4.507v57.213a4.505 4.505 0 0 0 4.505 4.507h26.492a4.505 4.505 0 0 0 4.505-4.507V36.596a4.506 4.506 0 0 0-4.505-4.508z" mask="url(#b)"/>
        <path fill="#000" d="M283.081 93.03h-1.593a.814.814 0 0 0-.813.814v1.593c0 .448.365.813.813.813h1.593a.814.814 0 0 0 .813-.813v-1.593a.814.814 0 0 0-.813-.813M326.752 97.08h60.045V53.254h-60.045V97.08zm64.271-23.845c.896 0 1.626.73 1.626 1.626v1.593c0 .897-.73 1.626-1.626 1.626h-1.594a1.628 1.628 0 0 1-1.626-1.626v-1.593c0-.897.73-1.626 1.626-1.626h1.594zm-71.198-16.71v37.283a4.506 4.506 0 0 0 4.506 4.507h65.063a4.507 4.507 0 0 0 4.507-4.507V56.525a4.506 4.506 0 0 0-4.507-4.506h-65.063a4.505 4.505 0 0 0-4.506 4.506z" mask="url(#b)"/>
        <path fill="#000" d="M388.617 74.862v1.593c0 .448.364.813.812.813h1.594a.814.814 0 0 0 .813-.814v-1.592a.814.814 0 0 0-.813-.813h-1.594a.813.813 0 0 0-.812.813" mask="url(#b)"/>
    </g>
</svg>
