<?xml version="1.0" encoding="UTF-8"?>
<svg width="31px" height="30px" viewBox="0 0 31 30" version="1.1" xmlns="http://www.w3.org/2000/svg" xmlns:xlink="http://www.w3.org/1999/xlink">
    <!-- Generator: Sketch 55.2 (78181) - https://sketchapp.com -->
    <title>Group 17</title>
    <desc>Created with Sketch.</desc>
    <defs>
        <polygon id="path-1" points="0 0 17 0 17 12 0 12"></polygon>
    </defs>
    <g id="Page-1" stroke="none" stroke-width="1" fill="none" fill-rule="evenodd">
        <g id="icons" transform="translate(-268.000000, -219.000000)">
            <g id="Group-17" transform="translate(268.000000, 218.000000)">
                <g id="icon_telegram-copy" fill="#36BDF7">
                    <g id="icon_google+-copy">
                        <path d="M30.5464,15.9985 C30.5464,24.2815 23.8304,30.9985 15.5464,30.9985 C7.2624,30.9985 0.5464,24.2815 0.5464,15.9985 C0.5464,7.7155 7.2624,0.9985 15.5464,0.9985 C23.8304,0.9985 30.5464,7.7155 30.5464,15.9985" id="Fill-83"></path>
                    </g>
                </g>
                <g id="Group-3" transform="translate(7.000000, 10.000000)">
                    <mask id="mask-2" fill="white">
                        <use xlink:href="#path-1"></use>
                    </mask>
                    <g id="Clip-2"></g>
                    <path d="M11,6.48429319 L7,4 L7,9 L11,6.48429319 Z M16.969446,4.43733333 L17,6 L16.969446,7.56266667 C16.9070095,8.72933333 16.8033914,9.59333333 16.6585919,10.156 C16.5536454,10.5106667 16.3676643,10.8226667 16.0979917,11.0933333 C15.8283191,11.364 15.5055091,11.552 15.1322185,11.656 C14.5928733,11.8026667 13.3268735,11.9066667 11.334219,11.9693333 L8.50066422,12 L5.66710948,11.9693333 C3.67445495,11.9066667 2.40845511,11.8026667 1.86910995,11.656 C1.49581933,11.552 1.1730093,11.364 0.90333672,11.0933333 C0.63366414,10.8226667 0.446354614,10.5106667 0.342736579,10.156 C0.197937016,9.59333333 0.094318981,8.72933333 0.0318824725,7.56266667 L0,6 C0,5.54133333 0.0106274908,5.02133333 0.0318824725,4.43733333 C0.094318981,3.292 0.197937016,2.43733333 0.342736579,1.87466667 C0.446354614,1.5 0.63366414,1.17733333 0.90333672,0.906666667 C1.1730093,0.636 1.49581933,0.448 1.86910995,0.344 C2.40845511,0.197333333 3.67445495,0.0933333333 5.66710948,0.0306666667 L8.50066422,0 L11.334219,0.0306666667 C13.3268735,0.0933333333 14.5928733,0.197333333 15.1322185,0.344 C15.5055091,0.448 15.8283191,0.636 16.0979917,0.906666667 C16.3676643,1.17733333 16.5536454,1.5 16.6585919,1.87466667 C16.8033914,2.43733333 16.9070095,3.292 16.969446,4.43733333 L16.969446,4.43733333 Z" id="Fill-1" fill="#FFFFFF" mask="url(#mask-2)"></path>
                </g>
            </g>
        </g>
    </g>
</svg>