<?xml version="1.0" encoding="UTF-8"?>
<svg width="314px" height="58px" viewBox="0 0 314 58" version="1.1" xmlns="http://www.w3.org/2000/svg" xmlns:xlink="http://www.w3.org/1999/xlink">
    <!-- Generator: Sketch 51.3 (57544) - http://www.bohemiancoding.com/sketch -->
    <title>logo</title>
    <desc>Created with Sketch.</desc>
    <defs></defs>
    <g id="Page-1" stroke="none" stroke-width="1" fill="none" fill-rule="evenodd">
        <g id="logo">
            <path d="M116.0825,30.9712 C115.4545,30.3432 114.6845,29.7572 113.7695,29.2262 C112.8495,28.6972 111.8245,28.1052 110.6855,27.4562 C110.0695,27.0932 109.4115,26.7232 108.6965,26.3572 C107.9905,25.9882 107.3235,25.6052 106.7125,25.1982 C106.1025,24.7862 105.5955,24.3252 105.1895,23.8202 C104.7805,23.3082 104.5765,22.7102 104.5765,22.0152 C104.5765,20.5892 104.9905,19.5592 105.8285,18.9282 C106.6645,18.2962 107.8175,17.9812 109.2815,17.9812 C110.3415,17.9812 111.3745,18.2832 112.3745,18.8692 C113.3715,19.4622 114.2205,20.1232 114.9085,20.8552 L117.4785,17.7322 C116.6615,16.7992 115.5545,15.9112 114.1425,15.0752 C112.7385,14.2352 111.0585,13.8212 109.1005,13.8212 C106.2515,13.8212 104.0145,14.5542 102.4045,16.0182 C100.7885,17.4862 99.9845,19.4812 99.9845,22.0112 C99.9845,23.2332 100.1715,24.2682 100.5355,25.1292 C100.9035,25.9842 101.4105,26.7492 102.0635,27.4262 C102.7145,28.0932 103.5025,28.7162 104.4165,29.2902 C105.3285,29.8602 106.3405,30.4652 107.4325,31.1212 C108.2875,31.6522 109.0915,32.1172 109.8495,32.5292 C110.6035,32.9322 111.2395,33.3322 111.7725,33.7162 C112.3035,34.1052 112.7145,34.5512 113.0265,35.0332 C113.3295,35.5272 113.4835,36.1122 113.4835,36.8042 C113.4835,38.4762 113.0325,39.5862 112.1365,40.1372 C111.2395,40.6872 109.9755,40.9622 108.3445,40.9622 C107.2825,40.9622 106.1415,40.6972 104.9215,40.1672 C103.6975,39.6372 102.5365,38.6232 101.4405,37.1142 L98.6245,40.1672 C99.8035,41.7132 101.1745,42.9122 102.7215,43.7472 C104.2715,44.5812 106.1235,45.0012 108.2875,45.0012 C111.0995,45.0012 113.4185,44.2972 115.2535,42.8902 C117.0925,41.4862 118.0105,39.2762 118.0105,36.2632 C118.0105,35.0412 117.8465,34.0132 117.5255,33.1772 C117.1915,32.3392 116.7155,31.6042 116.0825,30.9712" id="Fill-1" fill="#FFFFFF"></path>
            <path d="M141.311,34.978 C141.311,36.931 140.773,38.386 139.721,39.343 C138.66,40.302 137.189,40.778 135.317,40.778 C133.441,40.778 131.913,40.167 130.734,38.943 C129.551,37.731 128.957,36.135 128.957,34.184 L128.957,24.524 C128.957,22.646 129.551,21.098 130.734,19.874 C131.913,18.654 133.424,18.043 135.254,18.043 C137.171,18.043 138.66,18.519 139.721,19.479 C140.773,20.438 141.311,21.876 141.311,23.789 L141.311,34.978 Z M136.547,13.821 C134.879,13.821 133.341,14.216 131.934,15.011 C130.535,15.807 129.421,16.92 128.607,18.344 L128.178,14.429 L124.323,14.429 L124.323,57.85 L129.032,57.85 L129.032,41.329 C129.802,42.674 130.853,43.621 132.178,44.172 C133.502,44.728 134.918,45.001 136.424,45.001 C139.565,45.001 141.937,44.137 143.548,42.402 C145.158,40.672 145.963,38.195 145.963,34.978 L145.963,23.664 C145.963,20.363 145.194,17.896 143.669,16.263 C142.138,14.633 139.77,13.821 136.547,13.821 Z" id="Fill-3" fill="#FFFFFF"></path>
            <path d="M167.1812,34.9101 C167.1812,35.7631 167.0302,36.5551 166.7262,37.2641 C166.4192,37.9771 165.9842,38.5991 165.4402,39.1261 C164.8922,39.6591 164.2592,40.0751 163.5472,40.3801 C162.8362,40.6871 162.0702,40.8351 161.2622,40.8351 C159.8772,40.8351 158.7252,40.5501 157.8352,39.9831 C156.9432,39.4161 156.4942,38.4391 156.4942,37.0531 L156.4942,32.1001 L167.1812,29.8371 L167.1812,34.9101 Z M162.6482,13.8211 C161.8722,13.8211 161.0282,13.9301 160.0832,14.1521 C159.1522,14.3801 158.2292,14.6711 157.3062,15.0111 C156.3932,15.3631 155.5172,15.7461 154.6792,16.1801 C153.8412,16.6001 153.1412,17.0231 152.5722,17.4351 L154.2852,21.0361 C154.7702,20.7131 155.3592,20.3701 156.0592,19.9971 C156.7432,19.6301 157.4662,19.2931 158.2292,18.9921 C158.9702,18.6841 159.7152,18.4441 160.4212,18.2621 C161.1312,18.0711 161.7602,17.9811 162.2882,17.9811 C164.1542,17.9811 165.4422,18.3441 166.1652,19.0841 C166.8732,19.8121 167.2312,21.1401 167.2312,23.0531 L167.2312,26.2381 L151.8392,29.4761 L151.8392,37.1771 C151.8392,39.7831 152.5932,41.7301 154.1052,43.0131 C155.6082,44.2971 157.6702,44.9411 160.2702,44.9411 C161.9382,44.9411 163.3932,44.5021 164.6272,43.6201 C165.8752,42.7531 166.8732,41.6591 167.6472,40.3571 L167.9542,44.3901 L171.7532,44.3901 L171.7532,23.0531 C171.7532,19.8721 171.0312,17.5401 169.5832,16.0511 C168.1342,14.5641 165.8272,13.8211 162.6482,13.8211 Z" id="Fill-5" fill="#FFFFFF"></path>
            <path d="M184.6421,19.6938 C185.6381,18.6328 186.9941,18.1068 188.7051,18.1068 C189.8921,18.1068 190.9981,18.4218 192.0401,19.0488 C193.0761,19.6808 193.9641,20.5098 194.6971,21.5248 L197.8181,18.4708 C195.5351,15.3728 192.5001,13.8208 188.7051,13.8208 C187.1981,13.8208 185.8251,14.0678 184.5801,14.5548 C183.3371,15.0448 182.2681,15.7338 181.3751,16.6328 C180.4701,17.5298 179.7811,18.5878 179.2931,19.8128 C178.8021,21.0318 178.5551,22.3818 178.5551,23.8448 L178.5551,35.0958 C178.5551,38.2388 179.4801,40.6728 181.3381,42.4018 C183.1911,44.1368 185.6921,45.0018 188.8301,45.0018 C190.4571,45.0018 192.0401,44.6958 193.5641,44.0828 C195.0951,43.4678 196.4331,42.5138 197.5691,41.2068 L194.6971,38.0888 C194.0031,38.9868 193.1411,39.6448 192.0971,40.0748 C191.0621,40.5038 190.0131,40.7208 188.9541,40.7208 C187.1201,40.7208 185.6921,40.2378 184.6721,39.2878 C183.6501,38.3278 183.1431,36.9308 183.1431,35.0958 L183.1431,23.8468 C183.1431,22.1378 183.6451,20.7548 184.6421,19.6938" id="Fill-7" fill="#FFFFFF"></path>
            <path d="M207.0513,23.8471 C207.0513,22.0971 207.6313,20.6991 208.7883,19.6651 C209.9583,18.6261 211.3923,18.1071 213.1053,18.1071 C214.7783,18.1071 216.0103,18.5291 216.8003,19.3841 C217.5983,20.2421 218.1193,21.4821 218.3583,23.1171 L218.4883,25.7441 L207.0513,27.8251 L207.0513,23.8471 Z M217.5323,40.1041 C216.4603,40.5151 215.3043,40.7211 214.0843,40.7211 C212.0093,40.7211 210.3133,40.1561 209.0073,39.0391 C207.7053,37.9181 207.0513,36.3181 207.0513,34.2381 L207.0513,31.2391 L223.0713,28.3681 L223.0713,23.8451 C223.0713,22.3411 222.8283,20.9581 222.3363,19.7161 C221.8453,18.4771 221.1673,17.4151 220.2873,16.5401 C219.4123,15.6681 218.3583,14.9911 217.1403,14.5221 C215.9143,14.0581 214.5753,13.8211 213.1053,13.8211 C211.5543,13.8211 210.1333,14.0581 208.8193,14.5221 C207.5243,14.9911 206.4003,15.6501 205.4543,16.5101 C204.5213,17.3661 203.7893,18.4111 203.2563,19.6581 C202.7263,20.9021 202.4633,22.2981 202.4633,23.8451 L202.4633,34.2441 C202.4633,37.7891 203.4823,40.4691 205.5183,42.2841 C207.5633,44.0951 210.3523,45.0011 213.8983,45.0011 C215.7763,45.0011 217.4953,44.7061 219.0643,44.1171 C220.6343,43.5211 222.1103,42.5141 223.5003,41.0851 L220.9333,37.8491 C219.7523,38.9431 218.6173,39.6971 217.5323,40.1041 Z" id="Fill-9" fill="#FFFFFF"></path>
            <polygon id="Fill-11" fill="#FFFFFF" points="250.8267 38.5229 245.8077 14.4289 241.2227 14.4289 236.3317 38.6429 231.8697 14.4289 227.1017 14.4289 233.8867 44.4539 238.7767 44.4539 243.6067 21.7689 248.4437 44.4539 253.2097 44.4539 259.9367 14.4289 255.2237 14.4289"></polygon>
            <path d="M268.3237,23.8471 C268.3237,22.0971 268.8997,20.6991 270.0607,19.6651 C271.2277,18.6261 272.6647,18.1071 274.3757,18.1071 C276.0437,18.1071 277.2757,18.5291 278.0687,19.3841 C278.8637,20.2421 279.3867,21.4821 279.6257,23.1171 L279.7517,25.7441 L268.3237,27.8251 L268.3237,23.8471 Z M278.8067,40.1041 C277.7257,40.5151 276.5807,40.7211 275.3537,40.7211 C273.2747,40.7211 271.5817,40.1561 270.2727,39.0391 C268.9727,37.9181 268.3237,36.3181 268.3237,34.2381 L268.3237,31.2391 L284.3397,28.3681 L284.3397,23.8451 C284.3397,22.3411 284.0927,20.9581 283.6067,19.7161 C283.1217,18.4771 282.4327,17.4151 281.5537,16.5401 C280.6777,15.6681 279.6257,14.9911 278.4087,14.5221 C277.1867,14.0581 275.8427,13.8211 274.3757,13.8211 C272.8247,13.8211 271.3987,14.0581 270.0947,14.5221 C268.7917,14.9911 267.6677,15.6501 266.7337,16.5101 C265.7937,17.3661 265.0567,18.4111 264.5287,19.6581 C263.9957,20.9021 263.7317,22.2981 263.7317,23.8451 L263.7317,34.2441 C263.7317,37.7891 264.7547,40.4691 266.7927,42.2841 C268.8307,44.0951 271.6247,45.0011 275.1687,45.0011 C277.0417,45.0011 278.7677,44.7061 280.3367,44.1171 C281.9047,43.5211 283.3867,42.5141 284.7657,41.0851 L282.1987,37.8491 C281.0157,38.9431 279.8897,39.6971 278.8067,40.1041 Z" id="Fill-13" fill="#FFFFFF"></path>
            <path d="M308.7202,35.1557 C308.7202,36.9887 308.1742,38.3797 307.0742,39.3107 C305.9732,40.2487 304.5132,40.7207 302.6742,40.7207 C300.6842,40.7207 299.1162,40.0827 297.9792,38.8247 C296.8372,37.5607 296.2652,35.9317 296.2652,33.9347 L296.2652,25.0067 C296.2652,24.1167 296.4252,23.2487 296.7242,22.4157 C297.0302,21.5767 297.4652,20.8457 298.0322,20.2127 C298.6092,19.5807 299.2742,19.0837 300.0562,18.7167 C300.8262,18.3437 301.6552,18.1657 302.5552,18.1657 C304.5132,18.1657 306.0262,18.6257 307.1022,19.5417 C308.1832,20.4557 308.7202,21.8957 308.7202,23.8467 L308.7202,35.1557 Z M310.9592,16.3567 C309.3522,14.6627 306.9612,13.8207 303.7822,13.8207 C302.2352,13.8207 300.8142,14.1877 299.5012,14.9197 C298.2032,15.6497 297.1182,16.6347 296.2652,17.8587 L296.2652,0.3557 L291.5522,0.3557 L291.5522,44.3907 L295.7152,44.3907 L295.9622,40.8347 C296.8202,42.3537 297.9032,43.4177 299.2312,44.0527 C300.5522,44.6847 302.0482,45.0017 303.7212,45.0017 C306.8532,45.0017 309.2482,44.1567 310.8992,42.4627 C312.5422,40.7677 313.3672,38.3387 313.3672,35.1607 L313.3672,23.6637 C313.3672,20.4797 312.5712,18.0497 310.9592,16.3567 Z" id="Fill-15" fill="#FFFFFF"></path>
            <path d="M41.312,44.0395 C40.325,44.0395 39.532,44.8385 39.532,45.8175 C39.532,46.8025 40.325,47.6005 41.312,47.6005 C42.291,47.6005 43.088,46.8025 43.088,45.8175 C43.088,44.8385 42.291,44.0395 41.312,44.0395" id="Fill-17" fill="#36BDF7"></path>
            <path d="M49.8481,39.3847 C46.1421,39.3847 43.1441,36.3787 43.1441,32.6717 C43.1441,28.9617 46.1421,25.9707 49.8481,25.9707 C53.5521,25.9707 56.5541,28.9617 56.5541,32.6717 C56.5541,36.3787 53.5521,39.3847 49.8481,39.3847 M32.8171,39.3847 C29.1081,39.3847 26.1061,36.3787 26.1061,32.6717 C26.1061,28.9617 29.1081,25.9707 32.8171,25.9707 C36.5211,25.9707 39.5181,28.9617 39.5181,32.6717 C39.5181,36.3787 36.5211,39.3847 32.8171,39.3847 M78.0351,18.1067 C76.1371,15.1057 74.0231,13.0167 72.0861,11.3157 C70.5661,9.9917 69.1501,8.9017 67.7591,7.8627 C67.1071,7.3757 66.2051,7.3757 65.6231,7.9427 C64.9001,8.6447 64.1461,9.3747 63.2921,10.1977 C62.0581,11.4017 60.6031,12.8057 58.8181,14.5007 C57.3621,15.8787 55.6901,17.4597 53.9771,19.0687 C53.3761,19.6377 52.5121,19.7977 51.6981,19.6507 C50.9511,19.5107 50.1861,19.4427 49.4041,19.4427 C46.7961,19.4427 44.3791,20.2277 42.3651,21.5767 C41.7191,22.0107 40.8641,22.0107 40.2181,21.5767 C38.2051,20.2277 35.7881,19.4427 33.1831,19.4427 C32.5421,19.4427 31.9201,19.4927 31.3051,19.5877 C30.4771,19.7157 29.5801,19.5767 28.9701,18.9947 C27.2801,17.4067 25.6341,15.8577 24.2011,14.5007 C22.4151,12.8057 20.9691,11.4017 19.7251,10.1977 C18.8721,9.3747 18.1201,8.6447 17.3951,7.9427 C16.8191,7.3757 15.9131,7.3757 15.2611,7.8627 C13.8691,8.9017 12.4541,9.9917 10.9361,11.3157 C8.9911,13.0167 6.8811,15.1057 4.9881,18.1067 C3.0931,21.1047 1.4141,25.0127 0.6391,28.8857 C-0.1409,32.7567 -0.0159,36.5997 0.7171,39.9197 C1.4491,43.2437 2.7831,46.0567 4.3071,48.7257 C5.8241,51.3987 7.5351,53.9207 7.7631,53.7887 C7.9811,53.6547 6.7341,50.8577 5.7371,48.1097 C4.7451,45.3677 4.0131,42.6677 3.6751,40.0497 C3.3331,37.4367 3.3931,34.9017 4.0781,31.9887 C4.7631,29.0767 6.0841,25.7967 7.5631,23.2917 C9.0381,20.7827 10.6711,19.0567 12.1751,17.6507 C13.2971,16.6007 14.3511,15.7337 15.3891,14.9137 C15.9821,14.4387 16.8401,14.5647 17.3601,15.1257 L17.5161,15.2987 L23.5721,21.8757 C24.1031,22.4457 24.0401,23.3257 23.5331,23.9187 C23.0461,24.5007 22.6041,25.1167 22.2251,25.7737 C21.8521,26.4147 21.0421,26.6737 20.4011,26.3017 L16.3201,23.9107 C15.6231,23.5017 14.7241,23.5977 14.1671,24.1877 C13.5561,24.8497 12.9351,25.5907 12.2961,26.5967 C11.3121,28.1207 10.2841,30.2597 9.6771,32.8607 C9.0771,35.4657 8.9191,38.5437 9.2761,41.3437 C9.6361,44.1487 10.5291,46.6937 11.5681,49.0427 C12.6121,51.3987 13.8161,53.5627 14.0351,53.5627 C14.2541,53.5627 13.4811,51.3987 12.8551,49.1827 C12.2351,46.9717 11.7591,44.7137 11.6051,42.5337 C11.4601,40.3577 11.6291,38.2567 12.0081,36.4627 C12.3781,34.6687 12.9461,33.1987 13.5091,32.0857 C13.7821,31.5327 14.0591,31.0587 14.3301,30.6357 C14.7521,29.9917 15.6341,29.8367 16.2511,30.3077 L19.5191,32.7897 C20.2361,33.3357 20.6701,34.1637 20.8821,35.0327 C20.9171,35.1807 20.9561,35.3257 20.9941,35.4657 C21.1511,36.0647 20.6521,36.6217 20.0551,36.5147 L18.9131,36.3237 C18.1441,36.1957 17.3771,36.6517 17.1781,37.4047 C16.9491,38.2437 16.7581,39.1077 16.6691,40.0157 C16.5281,41.4047 16.6391,42.9287 16.8961,44.4247 C17.1571,45.9217 17.5731,47.3987 18.3561,49.2747 C19.1451,51.1567 20.3121,53.4447 20.5401,53.5167 C20.7631,53.5907 20.0371,51.4537 19.5981,49.6457 C19.1451,47.8327 18.9851,46.3427 18.9321,45.1457 C18.8781,43.9537 18.9371,43.0557 19.0501,42.2657 C19.0891,41.9727 19.1381,41.6917 19.1921,41.4157 C19.3441,40.6947 20.1151,40.3067 20.8211,40.5157 L23.6981,41.3717 C24.5641,41.6327 25.3551,42.0757 26.1061,42.5827 C28.1251,43.9537 30.5621,44.7547 33.1831,44.7547 C35.7881,44.7547 38.2051,43.9637 40.2181,42.6137 C40.8641,42.1777 41.7191,42.1777 42.3651,42.6137 C44.3791,43.9637 46.7961,44.7547 49.4041,44.7547 C51.9301,44.7547 54.2731,44.0117 56.2531,42.7357 C56.9961,42.2507 57.7851,41.8267 58.6351,41.5787 L62.1931,40.5157 C62.9101,40.3067 63.6781,40.6947 63.8261,41.4157 C63.8771,41.6917 63.9271,41.9727 63.9751,42.2657 C64.0891,43.0557 64.1461,43.9537 64.0891,45.1457 C64.0341,46.3427 63.8631,47.8327 63.4221,49.6457 C62.9811,51.4537 62.2591,53.5907 62.4801,53.5167 C62.7031,53.4447 63.8731,51.1567 64.6581,49.2747 C65.4501,47.3987 65.8601,45.9217 66.1191,44.4247 C66.3741,42.9287 66.4861,41.4047 66.3531,40.0157 C66.2601,39.1077 66.0721,38.2437 65.8491,37.4047 C65.6401,36.6517 64.8761,36.1957 64.1031,36.3237 L62.5081,36.5997 C61.8821,36.7017 61.4301,36.0647 61.6031,35.4467 C61.8341,34.5597 62.2751,33.7167 63.0061,33.1617 L66.7671,30.3077 C67.3781,29.8367 68.2701,29.9917 68.6861,30.6357 C68.9631,31.0587 69.2321,31.5327 69.5091,32.0857 C70.0681,33.1987 70.6351,34.6687 71.0121,36.4627 C71.3821,38.2567 71.5631,40.3577 71.4151,42.5337 C71.2681,44.7137 70.7871,46.9717 70.1631,49.1827 C69.5391,51.3987 68.7681,53.5627 68.9811,53.5627 C69.1981,53.5627 70.4021,51.3987 71.4481,49.0427 C72.4941,46.6937 73.3821,44.1487 73.7451,41.3437 C74.1031,38.5437 73.9371,35.4657 73.3381,32.8607 C72.7411,30.2597 71.7051,28.1207 70.7241,26.5967 C70.0851,25.5907 69.4591,24.8497 68.8481,24.1877 C68.2961,23.5977 67.3951,23.5007 66.6941,23.9107 L62.2701,26.4977 C61.6331,26.8737 60.8241,26.5867 60.4611,25.9347 C60.1001,25.2837 59.6751,24.6707 59.2031,24.0947 C58.7271,23.5017 58.7361,22.6457 59.2511,22.0867 L65.5021,15.2987 L65.6621,15.1257 C66.1821,14.5647 67.0341,14.4387 67.6331,14.9137 C68.6641,15.7337 69.7191,16.6007 70.8431,17.6507 C72.3471,19.0567 73.9801,20.7827 75.4521,23.2917 C76.9301,25.7967 78.2511,29.0767 78.9381,31.9887 C79.6311,34.9017 79.6811,37.4367 79.3431,40.0497 C79.0051,42.6677 78.2731,45.3677 77.2811,48.1097 C76.2851,50.8577 75.0331,53.6547 75.2551,53.7887 C75.4831,53.9207 77.1901,51.3987 78.7141,48.7257 C80.2351,46.0567 81.5741,43.2437 82.3081,39.9197 C83.0341,36.5997 83.1611,32.7567 82.3841,28.8857 C81.6091,25.0127 79.9321,21.1047 78.0351,18.1067" id="Fill-19" fill="#36BDF7"></path>
            <path d="M35.7671,31.1875 C34.7861,31.1875 33.9911,31.9895 33.9911,32.9695 C33.9911,33.9525 34.7861,34.7515 35.7671,34.7515 C36.7541,34.7515 37.5521,33.9525 37.5521,32.9695 C37.5521,31.9895 36.7541,31.1875 35.7671,31.1875" id="Fill-21" fill="#36BDF7"></path>
            <path d="M52.8071,31.1875 C51.8221,31.1875 51.0251,31.9895 51.0251,32.9695 C51.0251,33.9525 51.8221,34.7515 52.8071,34.7515 C53.7921,34.7515 54.5871,33.9525 54.5871,32.9695 C54.5871,31.9895 53.7921,31.1875 52.8071,31.1875" id="Fill-23" fill="#36BDF7"></path>
        </g>
    </g>
</svg>