<?xml version="1.0" encoding="UTF-8"?>
<svg width="85px" height="47px" viewBox="0 0 85 47" version="1.1" xmlns="http://www.w3.org/2000/svg" xmlns:xlink="http://www.w3.org/1999/xlink">
    <!-- Generator: Sketch 52.6 (67491) - http://www.bohemiancoding.com/sketch -->
    <title>Artboard</title>
    <desc>Created with Sketch.</desc>
    <g id="Artboard" stroke="none" stroke-width="1" fill="none" fill-rule="evenodd">
        <g id="logo" transform="translate(1.000000, -7.000000)" fill="#36BDF7">
            <path d="M41.312,44.0395 C40.325,44.0395 39.532,44.8385 39.532,45.8175 C39.532,46.8025 40.325,47.6005 41.312,47.6005 C42.291,47.6005 43.088,46.8025 43.088,45.8175 C43.088,44.8385 42.291,44.0395 41.312,44.0395" id="Fill-17"></path>
            <path d="M49.8481,39.3847 C46.1421,39.3847 43.1441,36.3787 43.1441,32.6717 C43.1441,28.9617 46.1421,25.9707 49.8481,25.9707 C53.5521,25.9707 56.5541,28.9617 56.5541,32.6717 C56.5541,36.3787 53.5521,39.3847 49.8481,39.3847 M32.8171,39.3847 C29.1081,39.3847 26.1061,36.3787 26.1061,32.6717 C26.1061,28.9617 29.1081,25.9707 32.8171,25.9707 C36.5211,25.9707 39.5181,28.9617 39.5181,32.6717 C39.5181,36.3787 36.5211,39.3847 32.8171,39.3847 M78.0351,18.1067 C76.1371,15.1057 74.0231,13.0167 72.0861,11.3157 C70.5661,9.9917 69.1501,8.9017 67.7591,7.8627 C67.1071,7.3757 66.2051,7.3757 65.6231,7.9427 C64.9001,8.6447 64.1461,9.3747 63.2921,10.1977 C62.0581,11.4017 60.6031,12.8057 58.8181,14.5007 C57.3621,15.8787 55.6901,17.4597 53.9771,19.0687 C53.3761,19.6377 52.5121,19.7977 51.6981,19.6507 C50.9511,19.5107 50.1861,19.4427 49.4041,19.4427 C46.7961,19.4427 44.3791,20.2277 42.3651,21.5767 C41.7191,22.0107 40.8641,22.0107 40.2181,21.5767 C38.2051,20.2277 35.7881,19.4427 33.1831,19.4427 C32.5421,19.4427 31.9201,19.4927 31.3051,19.5877 C30.4771,19.7157 29.5801,19.5767 28.9701,18.9947 C27.2801,17.4067 25.6341,15.8577 24.2011,14.5007 C22.4151,12.8057 20.9691,11.4017 19.7251,10.1977 C18.8721,9.3747 18.1201,8.6447 17.3951,7.9427 C16.8191,7.3757 15.9131,7.3757 15.2611,7.8627 C13.8691,8.9017 12.4541,9.9917 10.9361,11.3157 C8.9911,13.0167 6.8811,15.1057 4.9881,18.1067 C3.0931,21.1047 1.4141,25.0127 0.6391,28.8857 C-0.1409,32.7567 -0.0159,36.5997 0.7171,39.9197 C1.4491,43.2437 2.7831,46.0567 4.3071,48.7257 C5.8241,51.3987 7.5351,53.9207 7.7631,53.7887 C7.9811,53.6547 6.7341,50.8577 5.7371,48.1097 C4.7451,45.3677 4.0131,42.6677 3.6751,40.0497 C3.3331,37.4367 3.3931,34.9017 4.0781,31.9887 C4.7631,29.0767 6.0841,25.7967 7.5631,23.2917 C9.0381,20.7827 10.6711,19.0567 12.1751,17.6507 C13.2971,16.6007 14.3511,15.7337 15.3891,14.9137 C15.9821,14.4387 16.8401,14.5647 17.3601,15.1257 L17.5161,15.2987 L23.5721,21.8757 C24.1031,22.4457 24.0401,23.3257 23.5331,23.9187 C23.0461,24.5007 22.6041,25.1167 22.2251,25.7737 C21.8521,26.4147 21.0421,26.6737 20.4011,26.3017 L16.3201,23.9107 C15.6231,23.5017 14.7241,23.5977 14.1671,24.1877 C13.5561,24.8497 12.9351,25.5907 12.2961,26.5967 C11.3121,28.1207 10.2841,30.2597 9.6771,32.8607 C9.0771,35.4657 8.9191,38.5437 9.2761,41.3437 C9.6361,44.1487 10.5291,46.6937 11.5681,49.0427 C12.6121,51.3987 13.8161,53.5627 14.0351,53.5627 C14.2541,53.5627 13.4811,51.3987 12.8551,49.1827 C12.2351,46.9717 11.7591,44.7137 11.6051,42.5337 C11.4601,40.3577 11.6291,38.2567 12.0081,36.4627 C12.3781,34.6687 12.9461,33.1987 13.5091,32.0857 C13.7821,31.5327 14.0591,31.0587 14.3301,30.6357 C14.7521,29.9917 15.6341,29.8367 16.2511,30.3077 L19.5191,32.7897 C20.2361,33.3357 20.6701,34.1637 20.8821,35.0327 C20.9171,35.1807 20.9561,35.3257 20.9941,35.4657 C21.1511,36.0647 20.6521,36.6217 20.0551,36.5147 L18.9131,36.3237 C18.1441,36.1957 17.3771,36.6517 17.1781,37.4047 C16.9491,38.2437 16.7581,39.1077 16.6691,40.0157 C16.5281,41.4047 16.6391,42.9287 16.8961,44.4247 C17.1571,45.9217 17.5731,47.3987 18.3561,49.2747 C19.1451,51.1567 20.3121,53.4447 20.5401,53.5167 C20.7631,53.5907 20.0371,51.4537 19.5981,49.6457 C19.1451,47.8327 18.9851,46.3427 18.9321,45.1457 C18.8781,43.9537 18.9371,43.0557 19.0501,42.2657 C19.0891,41.9727 19.1381,41.6917 19.1921,41.4157 C19.3441,40.6947 20.1151,40.3067 20.8211,40.5157 L23.6981,41.3717 C24.5641,41.6327 25.3551,42.0757 26.1061,42.5827 C28.1251,43.9537 30.5621,44.7547 33.1831,44.7547 C35.7881,44.7547 38.2051,43.9637 40.2181,42.6137 C40.8641,42.1777 41.7191,42.1777 42.3651,42.6137 C44.3791,43.9637 46.7961,44.7547 49.4041,44.7547 C51.9301,44.7547 54.2731,44.0117 56.2531,42.7357 C56.9961,42.2507 57.7851,41.8267 58.6351,41.5787 L62.1931,40.5157 C62.9101,40.3067 63.6781,40.6947 63.8261,41.4157 C63.8771,41.6917 63.9271,41.9727 63.9751,42.2657 C64.0891,43.0557 64.1461,43.9537 64.0891,45.1457 C64.0341,46.3427 63.8631,47.8327 63.4221,49.6457 C62.9811,51.4537 62.2591,53.5907 62.4801,53.5167 C62.7031,53.4447 63.8731,51.1567 64.6581,49.2747 C65.4501,47.3987 65.8601,45.9217 66.1191,44.4247 C66.3741,42.9287 66.4861,41.4047 66.3531,40.0157 C66.2601,39.1077 66.0721,38.2437 65.8491,37.4047 C65.6401,36.6517 64.8761,36.1957 64.1031,36.3237 L62.5081,36.5997 C61.8821,36.7017 61.4301,36.0647 61.6031,35.4467 C61.8341,34.5597 62.2751,33.7167 63.0061,33.1617 L66.7671,30.3077 C67.3781,29.8367 68.2701,29.9917 68.6861,30.6357 C68.9631,31.0587 69.2321,31.5327 69.5091,32.0857 C70.0681,33.1987 70.6351,34.6687 71.0121,36.4627 C71.3821,38.2567 71.5631,40.3577 71.4151,42.5337 C71.2681,44.7137 70.7871,46.9717 70.1631,49.1827 C69.5391,51.3987 68.7681,53.5627 68.9811,53.5627 C69.1981,53.5627 70.4021,51.3987 71.4481,49.0427 C72.4941,46.6937 73.3821,44.1487 73.7451,41.3437 C74.1031,38.5437 73.9371,35.4657 73.3381,32.8607 C72.7411,30.2597 71.7051,28.1207 70.7241,26.5967 C70.0851,25.5907 69.4591,24.8497 68.8481,24.1877 C68.2961,23.5977 67.3951,23.5007 66.6941,23.9107 L62.2701,26.4977 C61.6331,26.8737 60.8241,26.5867 60.4611,25.9347 C60.1001,25.2837 59.6751,24.6707 59.2031,24.0947 C58.7271,23.5017 58.7361,22.6457 59.2511,22.0867 L65.5021,15.2987 L65.6621,15.1257 C66.1821,14.5647 67.0341,14.4387 67.6331,14.9137 C68.6641,15.7337 69.7191,16.6007 70.8431,17.6507 C72.3471,19.0567 73.9801,20.7827 75.4521,23.2917 C76.9301,25.7967 78.2511,29.0767 78.9381,31.9887 C79.6311,34.9017 79.6811,37.4367 79.3431,40.0497 C79.0051,42.6677 78.2731,45.3677 77.2811,48.1097 C76.2851,50.8577 75.0331,53.6547 75.2551,53.7887 C75.4831,53.9207 77.1901,51.3987 78.7141,48.7257 C80.2351,46.0567 81.5741,43.2437 82.3081,39.9197 C83.0341,36.5997 83.1611,32.7567 82.3841,28.8857 C81.6091,25.0127 79.9321,21.1047 78.0351,18.1067" id="Fill-19" fill-rule="nonzero"></path>
            <path d="M35.7671,31.1875 C34.7861,31.1875 33.9911,31.9895 33.9911,32.9695 C33.9911,33.9525 34.7861,34.7515 35.7671,34.7515 C36.7541,34.7515 37.5521,33.9525 37.5521,32.9695 C37.5521,31.9895 36.7541,31.1875 35.7671,31.1875" id="Fill-21"></path>
            <path d="M52.8071,31.1875 C51.8221,31.1875 51.0251,31.9895 51.0251,32.9695 C51.0251,33.9525 51.8221,34.7515 52.8071,34.7515 C53.7921,34.7515 54.5871,33.9525 54.5871,32.9695 C54.5871,31.9895 53.7921,31.1875 52.8071,31.1875" id="Fill-23"></path>
        </g>
    </g>
</svg>