<?xml version="1.0" encoding="UTF-8"?>
<svg width="50px" height="31px" viewBox="0 0 50 31" version="1.1" xmlns="http://www.w3.org/2000/svg" xmlns:xlink="http://www.w3.org/1999/xlink">
    <!-- Generator: Sketch 51.2 (57519) - http://www.bohemiancoding.com/sketch -->
    <title>4</title>
    <desc>Created with Sketch.</desc>
    <defs></defs>
    <g id="4" stroke="none" stroke-width="1" fill="none" fill-rule="evenodd">
        <g id="icon-05" fill="#FFFFFF" fill-rule="nonzero">
            <path d="M49.3138462,6.48615385 C47.8830769,2.57538462 39.7753846,3.24307692 35.0061538,4.10153846 C33.0030769,2.38461538 30.5230769,1.14461538 27.9476923,0.667692308 C19.84,-0.858461538 12.0184615,4.48307692 10.4923077,12.4953846 C6.2,14.7846154 -0.763076923,19.2676923 0.763076923,23.2738462 C1.62153846,25.5630769 4.96,26.6123077 10.5876923,26.2307692 C11.7323077,26.1353846 13.0676923,26.04 14.4030769,25.7538462 C16.5969231,28.0430769 19.3630769,29.5692308 22.5107692,30.1415385 C23.4646154,30.3323077 24.3230769,30.4276923 25.2769231,30.4276923 C32.3353846,30.4276923 38.7261538,25.3723077 40.0615385,18.1230769 C40.1569231,17.7415385 40.1569231,17.4553846 40.2523077,16.9784615 C47.12,13.1630769 50.3630769,9.44307692 49.3138462,6.48615385 Z M12.2092308,23.0830769 C11.5415385,23.1784615 10.9692308,23.1784615 10.3969231,23.2738462 C5.53230769,23.56 3.91076923,22.7015385 3.72,22.2246154 C3.43384615,21.2707692 5.24615385,19.0769231 10.0153846,16.12 C10.2061538,18.6 10.9692308,20.9846154 12.2092308,23.0830769 Z M40.0615385,13.5446154 C39.7753846,11.0646154 38.8215385,8.77538462 37.3907692,6.67692308 C42.9230769,6.00923077 45.88,6.67692308 46.1661538,7.53538462 C46.4523077,8.48923077 44.7353846,10.7784615 40.0615385,13.5446154 Z M36.8184615,15.3569231 C33.7661538,16.8830769 30.4276923,18.3138462 26.7076923,19.6492308 C22.9876923,20.8892308 19.2676923,21.9384615 15.9292308,22.6061538 C13.9261538,19.9353846 13.0676923,16.5969231 13.7353846,13.3538462 C14.3076923,10.3015385 16.0246154,7.63076923 18.6,5.81846154 C20.6030769,4.48307692 22.8923077,3.81538462 25.1815385,3.81538462 C25.9446154,3.81538462 26.6123077,3.91076923 27.3753846,4.00615385 C32.8123077,4.96 36.8184615,9.72923077 36.8184615,15.3569231 Z M36.2461538,18.9815385 C34.5292308,24.5138462 28.8061538,28.0430769 22.9876923,26.9938462 C21.3661538,26.7076923 19.84,26.04 18.5046154,25.0861538 C20.1261538,24.7046154 21.8430769,24.3230769 23.56,23.7507692 C24.8953846,23.3692308 26.3261538,22.8923077 27.7569231,22.4153846 C30.7138462,21.3661538 33.5753846,20.2215385 36.2461538,18.9815385 Z" id="Shape"></path>
        </g>
    </g>
</svg>