<?xml version="1.0" encoding="UTF-8"?>
<svg width="50px" height="31px" viewBox="0 0 50 31" version="1.1" xmlns="http://www.w3.org/2000/svg" xmlns:xlink="http://www.w3.org/1999/xlink">
    <!-- Generator: Sketch 51.2 (57519) - http://www.bohemiancoding.com/sketch -->
    <title>3</title>
    <desc>Created with Sketch.</desc>
    <defs></defs>
    <g id="3" stroke="none" stroke-width="1" fill="none" fill-rule="evenodd">
        <g id="4" transform="translate(10.000000, 0.000000)" fill="#FFFFFF">
            <path d="M15.5,3 C22.4,3 28,8.6 28,15.5 C28,22.4 22.4,28 15.5,28 C8.6,28 3,22.4 3,15.5 C3,8.6 8.6,3 15.5,3 Z M15.5,0 C6.9,0 0,6.9 0,15.5 C0,24.1 6.9,31 15.5,31 C24.1,31 31,24.1 31,15.5 C31,6.9 24.1,0 15.5,0 Z" id="Shape" fill-rule="nonzero"></path>
            <path d="M20,11.9 C20,9.3 17.9,7.9 15.5,7.9 C14.2,7.9 13.1,8.3 12.3,9 C11.4,9.8 11.1,10.8 11.1,11.3 C11.1,11.8 11.2,12.2 11.5,12.4 C11.8,12.7 12.1,12.8 12.6,12.8 C13,12.8 13.4,12.7 13.7,12.4 C13.9,12.2 14,12 14.2,11.7 C14.3,11.5 14.4,11.2 14.6,11 C14.9,10.7 15.1,10.6 15.6,10.6 C16.4,10.6 16.8,11.1 16.8,11.7 C16.8,12.1 16.6,12.5 16.3,12.9 L14.9,14.5 C14.3,15.2 14.1,15.7 14.1,16.2 C14.1,16.6 14.2,17 14.5,17.2 C14.8,17.5 15.2,17.7 15.7,17.7 C16.2,17.7 16.6,17.6 16.9,17.3 C17.1,17.1 17.3,16.8 17.4,16.5 C17.5,16.2 17.7,15.9 18,15.5 L19,14.4 C19.6,13.8 20,13.1 20,11.9 Z M15.5,23 C16.6,23 17.4,22.2 17.4,21.2 C17.4,20.2 16.5,19.4 15.5,19.4 C14.5,19.4 13.6,20.2 13.6,21.2 C13.6,22.2 14.5,23 15.5,23 Z" id="Shape"></path>
        </g>
    </g>
</svg>