<?xml version="1.0" encoding="UTF-8"?>
<svg width="50px" height="31px" viewBox="0 0 50 31" version="1.1" xmlns="http://www.w3.org/2000/svg" xmlns:xlink="http://www.w3.org/1999/xlink">
    <!-- Generator: Sketch 51.2 (57519) - http://www.bohemiancoding.com/sketch -->
    <title>2</title>
    <desc>Created with Sketch.</desc>
    <defs></defs>
    <g id="2" stroke="none" stroke-width="1" fill="none" fill-rule="evenodd">
        <g id="3" transform="translate(7.000000, 3.000000)">
            <path d="M31.8857143,3.12 C32.4,3.12 32.9142857,3.536 32.9142857,3.952 L32.9142857,12.064 L32.9142857,21.84 C32.9142857,22.36 32.4,22.88 31.8857143,22.88 L4.11428571,22.88 C3.6,22.88 3.08571429,22.36 3.08571429,21.84 L3.08571429,12.168 L3.08571429,3.952 C3.08571429,3.536 3.6,3.12 4.11428571,3.12 L31.8857143,3.12 Z M31.8857143,0 L4.11428571,0 C1.85142857,0 0,1.768 0,3.952 C0,6.136 0,9.776 0,12.064 L0,21.84 C0,24.128 1.85142857,26 4.11428571,26 L31.8857143,26 C34.1485714,26 36,24.128 36,21.84 L36,12.168 C36,9.88 36,6.24 36,4.056 C36,1.872 34.1485714,0 31.8857143,0 Z" id="Shape" fill="#FFFFFF" fill-rule="nonzero"></path>
            <path d="M1,10 L34,10" id="Shape" stroke="#FFFFFF" stroke-width="3"></path>
        </g>
    </g>
</svg>