<?xml version="1.0" encoding="UTF-8"?>
<svg width="50px" height="31px" viewBox="0 0 50 31" version="1.1" xmlns="http://www.w3.org/2000/svg" xmlns:xlink="http://www.w3.org/1999/xlink">
    <!-- Generator: Sketch 51.2 (57519) - http://www.bohemiancoding.com/sketch -->
    <title>1</title>
    <desc>Created with Sketch.</desc>
    <defs></defs>
    <g id="1" stroke="none" stroke-width="1" fill="none" fill-rule="evenodd">
        <g id="2" transform="translate(8.000000, 3.000000)">
            <path d="M30,3 C30.5,3 31,3.5 31,4 L31,21.9 C31,22.4 30.5,22.9 30,22.9 L4,22.9 C3.5,22.9 3,22.4 3,21.9 L3,4 C3,3.5 3.5,3 4,3 L30,3 Z M30,0 L4,0 C1.8,0 0,1.8 0,4 L0,21.9 C0,24.1 1.8,25.9 4,25.9 L30,25.9 C32.2,25.9 34,24.1 34,21.9 L34,4 C34,1.8 32.2,0 30,0 Z" id="Shape" fill="#FFFFFF" fill-rule="nonzero"></path>
            <path d="M1.6,1.2 L15.6,15.8 C16.4,16.6 17.6,16.6 18.4,15.8 L32.4,1.2" id="Shape" stroke="#FFFFFF" stroke-width="3"></path>
        </g>
    </g>
</svg>