<svg width="122" height="40" viewBox="0 0 122 40" fill="none" xmlns="http://www.w3.org/2000/svg">
<rect x="0.35" y="0.35" width="121.3" height="39.3" rx="5.65" fill="white" stroke="#A6A6A6" stroke-width="0.7"/>
<path d="M37.1859 10.863C37.2269 11.5713 37.0524 12.2754 36.6853 12.8827H39.3198V8.9047H37.1859V10.863ZM35.9741 14.6478H35.3242V12.8915H35.8423C36.0946 12.6242 36.2851 12.3047 36.4004 11.9557C36.5157 11.6068 36.553 11.2367 36.5097 10.8717V8.2373H40.0223V12.8563H40.6106V14.6126H39.9608V13.4974H35.9653V14.6126L35.9741 14.6478Z" fill="#010100"/>
<path d="M37.1906 10.8634H37.1028V10.9424C37.136 11.6061 36.9676 12.2643 36.6198 12.8304L36.532 12.971H39.4475V8.81733H37.1028V10.8634H37.2785V8.99296H39.2718V12.7953H36.6901V12.8831L36.7691 12.9358C37.1341 12.3371 37.3114 11.6428 37.2785 10.9424V10.8634H37.1906ZM35.9788 14.6482V14.5604H35.4344V12.971H35.8998C36.158 12.7047 36.3547 12.3851 36.4761 12.0346C36.5974 11.6842 36.6405 11.3114 36.6023 10.9424V10.881V8.36948H39.948V12.9885H40.5364V14.578H40.0622V13.4627H35.891V14.6658H35.9788H36.0666V13.6383H39.8251V14.7536H40.6505V12.8129H40.0622V8.19385H36.3652V10.881V10.9424C36.4018 11.2848 36.3635 11.6311 36.2528 11.9571C36.1421 12.2832 35.9617 12.5812 35.7241 12.8304L35.7856 12.9007V12.8129H35.1797V14.7536H36.0051V14.6658L35.9788 14.6482Z" fill="#010100"/>
<path d="M42.5085 12.4087C42.6937 12.6002 42.9164 12.7513 43.1627 12.8525C43.409 12.9538 43.6736 13.003 43.9399 12.9971C44.2061 13.003 44.4707 12.9538 44.7171 12.8525C44.9634 12.7513 45.1861 12.6002 45.3713 12.4087C45.565 12.2088 45.7168 11.9723 45.8178 11.7129C45.9189 11.4535 45.9671 11.1766 45.9596 10.8983C45.9683 10.6186 45.9206 10.34 45.8196 10.079C45.7185 9.81808 45.566 9.58007 45.3713 9.37914C45.1861 9.1877 44.9634 9.03662 44.7171 8.93537C44.4707 8.83412 44.2061 8.7849 43.9399 8.79078C43.6736 8.7849 43.409 8.83412 43.1627 8.93537C42.9164 9.03662 42.6937 9.1877 42.5085 9.37914C42.3137 9.58007 42.1613 9.81808 42.0602 10.079C41.9591 10.34 41.9115 10.6186 41.9202 10.8983C41.9127 11.1766 41.9609 11.4535 42.0619 11.7129C42.163 11.9723 42.3148 12.2088 42.5085 12.4087ZM45.8718 12.8478C45.6236 13.1088 45.3235 13.3148 44.9907 13.4524C44.6579 13.5901 44.2999 13.6563 43.9399 13.6469C43.5799 13.6563 43.2219 13.5901 42.8891 13.4524C42.5563 13.3148 42.2561 13.1088 42.008 12.8478C41.7546 12.5916 41.5556 12.2868 41.4229 11.9518C41.2901 11.6169 41.2262 11.2585 41.2352 10.8983C41.2266 10.5368 41.2905 10.1773 41.4232 9.84092C41.556 9.50457 41.7548 9.19825 42.008 8.94007C42.2584 8.68208 42.559 8.47809 42.8913 8.34066C43.2235 8.20323 43.5804 8.13527 43.9399 8.14095C44.3 8.1364 44.6573 8.20575 44.9896 8.3447C45.3218 8.48366 45.6221 8.68928 45.8718 8.94885C46.1251 9.2051 46.3241 9.50984 46.4569 9.84481C46.5897 10.1798 46.6535 10.5381 46.6446 10.8983C46.6535 11.2585 46.5897 11.6169 46.4569 11.9518C46.3241 12.2868 46.1251 12.5916 45.8718 12.8478Z" fill="#010100"/>
<path d="M42.5103 12.4088L42.4576 12.5054C42.6505 12.7054 42.8827 12.8633 43.1397 12.9691C43.3966 13.0749 43.6727 13.1263 43.9505 13.1201C44.2283 13.1263 44.5044 13.0749 44.7613 12.9691C45.0182 12.8633 45.2505 12.7054 45.4433 12.5054C45.6456 12.2977 45.8043 12.0517 45.9098 11.7817C46.0154 11.5117 46.0658 11.2233 46.058 10.9335C46.066 10.6424 46.0157 10.3526 45.9102 10.0811C45.8046 9.80971 45.6459 9.56209 45.4433 9.35284C45.2495 9.15407 45.0171 8.99701 44.7604 8.8913C44.5037 8.7856 44.2281 8.73348 43.9505 8.73814C43.6729 8.73348 43.3973 8.7856 43.1406 8.8913C42.8839 8.99701 42.6515 9.15407 42.4576 9.35284C42.2551 9.56209 42.0964 9.80971 41.9908 10.0811C41.8852 10.3526 41.835 10.6424 41.8429 10.9335C41.8352 11.2233 41.8855 11.5117 41.9911 11.7817C42.0967 12.0517 42.2553 12.2977 42.4576 12.5054L42.5191 12.4439L42.5806 12.3824C42.3963 12.1897 42.2517 11.9625 42.1553 11.7139C42.0589 11.4653 42.0124 11.2001 42.0186 10.9335C42.0067 10.3925 42.2086 9.86874 42.5806 9.47578C42.7577 9.29253 42.9709 9.14797 43.2066 9.05124C43.4424 8.95451 43.6957 8.9077 43.9505 8.91377C44.2053 8.9077 44.4585 8.95451 44.6943 9.05124C44.9301 9.14797 45.1433 9.29253 45.3204 9.47578C45.5066 9.66898 45.6522 9.89748 45.7487 10.1478C45.8453 10.3982 45.8907 10.6653 45.8824 10.9335C45.8905 11.2003 45.845 11.4661 45.7484 11.715C45.6519 11.9639 45.5063 12.1909 45.3204 12.3824C45.1433 12.5657 44.9301 12.7102 44.6943 12.807C44.4585 12.9037 44.2053 12.9505 43.9505 12.9444C43.6957 12.9505 43.4424 12.9037 43.2066 12.807C42.9709 12.7102 42.7577 12.5657 42.5806 12.3824L42.5191 12.4439L42.5103 12.4088ZM45.8736 12.8479L45.8122 12.7864C45.5717 13.0388 45.281 13.2379 44.9588 13.371C44.6367 13.5041 44.2902 13.5682 43.9417 13.5591C43.5933 13.5677 43.247 13.5033 42.9249 13.3703C42.6028 13.2372 42.312 13.0383 42.0713 12.7864C41.8281 12.5367 41.637 12.2413 41.5089 11.9172C41.3807 11.5931 41.3182 11.2468 41.3248 10.8984C41.317 10.5485 41.379 10.2005 41.5072 9.87486C41.6353 9.54919 41.8271 9.25231 42.0713 9.00158C42.312 8.74964 42.6028 8.55077 42.9249 8.4177C43.247 8.28463 43.5933 8.2203 43.9417 8.22882C44.2907 8.22196 44.6372 8.28793 44.9593 8.42249C45.2813 8.55706 45.5718 8.75727 45.8122 9.01036C46.0553 9.26005 46.2464 9.55549 46.3745 9.87958C46.5027 10.2037 46.5652 10.5499 46.5586 10.8984C46.5652 11.2468 46.5027 11.5931 46.3745 11.9172C46.2464 12.2413 46.0553 12.5367 45.8122 12.7864L45.8736 12.8479L45.9351 12.9093C46.1983 12.6463 46.4049 12.3322 46.5423 11.9864C46.6797 11.6406 46.745 11.2703 46.7342 10.8984C46.745 10.5264 46.6797 10.1562 46.5423 9.81038C46.4049 9.46457 46.1983 9.15049 45.9351 8.88742C45.6847 8.60738 45.3772 8.38414 45.0334 8.23268C44.6896 8.08122 44.3174 8.00505 43.9417 8.00928C43.5705 8.0022 43.2019 8.07186 42.8588 8.2139C42.5158 8.35594 42.2058 8.5673 41.9483 8.83473C41.687 9.10094 41.4816 9.41682 41.3443 9.76372C41.2071 10.1106 41.1407 10.4815 41.1492 10.8545C41.1404 11.2262 41.2067 11.5958 41.344 11.9413C41.4813 12.2868 41.6868 12.6011 41.9483 12.8654C42.2035 13.1359 42.5131 13.3493 42.8566 13.4916C43.2002 13.6338 43.57 13.7018 43.9417 13.6909C44.3134 13.7018 44.6832 13.6338 45.0268 13.4916C45.3703 13.3493 45.6799 13.1359 45.9351 12.8654L45.8736 12.8039V12.8479Z" fill="#010100"/>
<path d="M50.0615 13.6467C49.6982 13.6572 49.3367 13.5924 48.9997 13.4563C48.6627 13.3203 48.3575 13.1161 48.1032 12.8564C47.8451 12.6014 47.6425 12.2958 47.508 11.9588C47.3735 11.6219 47.3101 11.2607 47.3217 10.8981C47.312 10.5344 47.3763 10.1725 47.5106 9.8344C47.6449 9.49628 47.8466 9.18896 48.1032 8.93107C48.3575 8.67139 48.6627 8.46712 48.9997 8.33111C49.3367 8.19509 49.6982 8.13028 50.0615 8.14074C50.4287 8.13292 50.793 8.20779 51.1274 8.35979C51.4618 8.51179 51.7578 8.73705 51.9934 9.01888L51.5192 9.47552C51.3466 9.25657 51.1244 9.08184 50.8709 8.96579C50.6174 8.84973 50.34 8.79569 50.0615 8.80813C49.792 8.80163 49.524 8.84962 49.2735 8.94921C49.023 9.0488 48.7952 9.19795 48.6037 9.38771C48.4053 9.58785 48.2506 9.82698 48.1493 10.09C48.048 10.353 48.0024 10.6341 48.0154 10.9157C48.0056 11.1929 48.0527 11.4692 48.1539 11.7275C48.2551 11.9858 48.4082 12.2205 48.6037 12.4173C48.7952 12.6071 49.023 12.7562 49.2735 12.8558C49.524 12.9554 49.792 13.0034 50.0615 12.9969C50.3707 12.9982 50.6764 12.9302 50.9559 12.798C51.2355 12.6658 51.482 12.4727 51.6773 12.2329L52.1515 12.7071C51.9127 12.9972 51.6128 13.2311 51.2733 13.392C50.9044 13.562 50.5027 13.649 50.0966 13.6467H50.0615Z" fill="#010100"/>
<path d="M50.0591 13.6473V13.5595C49.7087 13.5695 49.36 13.5067 49.0351 13.3752C48.7101 13.2437 48.4159 13.0464 48.1711 12.7955C47.9204 12.5487 47.7232 12.2529 47.5918 11.9266C47.4604 11.6003 47.3975 11.2504 47.4071 10.8987C47.3973 10.5457 47.4601 10.1945 47.5915 9.86674C47.7229 9.53898 47.9202 9.24165 48.1711 8.99316C48.4159 8.74233 48.7101 8.54495 49.0351 8.41346C49.36 8.28197 49.7087 8.21922 50.0591 8.22917C50.4124 8.2177 50.7636 8.28687 51.0862 8.43142C51.4088 8.57597 51.6942 8.7921 51.9207 9.06341L51.991 9.00194L51.9295 8.94047L51.4553 9.3971L51.5168 9.45857L51.587 9.40589C51.4049 9.17764 51.1718 8.99521 50.9065 8.87322C50.6411 8.75123 50.3509 8.69306 50.0591 8.70337C49.7781 8.69704 49.4988 8.74744 49.2377 8.85155C48.9767 8.95566 48.7394 9.11134 48.5399 9.30929C48.332 9.5165 48.1698 9.76503 48.064 10.0388C47.9581 10.3126 47.9108 10.6055 47.9252 10.8987C47.9115 11.1905 47.9591 11.482 48.065 11.7542C48.1709 12.0265 48.3327 12.2735 48.5399 12.4794C48.7394 12.6773 48.9767 12.833 49.2377 12.9371C49.4988 13.0412 49.7781 13.0916 50.0591 13.0853C50.3799 13.087 50.697 13.0168 50.9872 12.8801C51.2774 12.7433 51.5334 12.5434 51.7363 12.295L51.6749 12.2335L51.6134 12.295L52.0788 12.7692L52.1491 12.7077L52.0788 12.6462C51.838 12.9298 51.5383 13.1575 51.2007 13.3136C50.8433 13.48 50.4532 13.564 50.0591 13.5595V13.7351C50.4803 13.7376 50.897 13.6477 51.2797 13.4717C51.6385 13.3059 51.9563 13.0631 52.2105 12.7604L52.2632 12.6989L51.7363 12.172L51.6661 12.1106L51.6046 12.1808C51.4184 12.4107 51.1827 12.5956 50.9151 12.7218C50.6475 12.848 50.3549 12.9122 50.0591 12.9097C49.801 12.9169 49.5442 12.8715 49.3042 12.7764C49.0641 12.6813 48.8459 12.5384 48.6628 12.3565C48.4733 12.1657 48.3254 11.9376 48.2287 11.6866C48.1319 11.4357 48.0884 11.1674 48.1008 10.8987C48.0882 10.6287 48.1316 10.3591 48.2284 10.1067C48.3251 9.85428 48.473 9.62465 48.6628 9.43223C48.8459 9.25024 49.0641 9.10736 49.3042 9.01226C49.5442 8.91716 49.801 8.87182 50.0591 8.879C50.3247 8.86758 50.5892 8.9198 50.8305 9.03131C51.0719 9.14282 51.2831 9.31038 51.4465 9.52004L51.508 9.5903L52.0525 9.06341L52.1139 8.99316L52.0612 8.93169C51.8141 8.64535 51.506 8.4179 51.1596 8.26596C50.8132 8.11402 50.4372 8.04145 50.0591 8.05354C49.6845 8.04484 49.3122 8.11279 48.9648 8.25323C48.6175 8.39367 48.3026 8.60363 48.0393 8.87022C47.7741 9.13583 47.5657 9.45265 47.4268 9.80139C47.2879 10.1501 47.2214 10.5235 47.2315 10.8987C47.2221 11.2726 47.2889 11.6444 47.4278 11.9916C47.5667 12.3388 47.7748 12.6542 48.0393 12.9185C48.3026 13.1851 48.6175 13.395 48.9648 13.5355C49.3122 13.6759 49.6845 13.7438 50.0591 13.7351V13.6473Z" fill="#010100"/>
<path d="M54.8849 13.5242H54.2087V8.9052H52.7422V8.25537H56.3601V8.9052H54.8849V13.5242Z" fill="#010100"/>
<path d="M54.8828 13.5237V13.4359H54.2945V8.81682H52.828V8.34262H56.2703V8.81682H54.795V13.5237H54.8828V13.4359V13.5237H54.9706V8.99245H56.4459V8.25481V8.16699H52.6523V8.90463V8.99245H54.1188V13.6115H54.8828H54.9706V13.5237H54.8828Z" fill="#010100"/>
<path d="M61.0032 8.26416L59.0098 12.7076C58.9291 12.9732 58.767 13.2067 58.5464 13.3753C58.3258 13.5439 58.0579 13.639 57.7804 13.6472C57.6018 13.6447 57.4255 13.6058 57.2623 13.533L57.4379 12.9008C57.5432 12.9663 57.6652 12.9998 57.7892 12.9974C57.9182 13.0059 58.0467 12.9753 58.158 12.9095C58.2594 12.816 58.3401 12.7024 58.3951 12.5759L58.5883 12.1543L56.832 8.26416H57.6224L58.922 11.285L60.1953 8.26416H61.0032Z" fill="#010100"/>
<path d="M61.0031 8.26356H60.9241L58.9307 12.707C58.8553 12.9555 58.7036 13.174 58.4972 13.3316C58.2907 13.4892 58.04 13.5779 57.7803 13.5851C57.613 13.5821 57.4483 13.5432 57.2974 13.471V13.5588H57.3764L57.552 12.9353H57.473V13.0143C57.593 13.0839 57.7294 13.1203 57.8682 13.1197C58.0135 13.13 58.1582 13.093 58.2809 13.0143C58.4001 12.9153 58.4936 12.7887 58.5531 12.6455L58.7463 12.224L56.99 8.42163H57.5959L58.8956 11.4424H59.0361L60.3094 8.42163H61.047V8.33382H60.968H61.047V8.246H60.1689L58.878 11.3195H58.957V11.2317V11.3195H59.0449L57.7189 8.246H56.7266L58.5443 12.224L58.3687 12.6104C58.3202 12.7236 58.2483 12.8253 58.1579 12.9089C58.0614 12.9619 57.9517 12.9863 57.8418 12.9792C57.7343 12.979 57.6287 12.9519 57.5345 12.9002L57.3852 12.7684L57.1744 13.5061V13.5763H57.2447C57.4193 13.6529 57.6072 13.6947 57.7979 13.6993C58.0925 13.692 58.3774 13.5923 58.6122 13.4142C58.847 13.2361 59.0199 12.9887 59.1063 12.707L61.1612 8.14062H61.0207V8.22844L61.0031 8.26356Z" fill="#010100"/>
<path d="M61.7773 13.5242V8.25537H65.5885V13.5242H64.9123V8.9052H62.4535V13.5242H61.7773Z" fill="#010100"/>
<path d="M61.7753 13.5237H61.8631V8.34262H65.4986V13.4359H64.9981V8.81682H62.3637V13.4359H61.7753V13.5237H61.8631H61.7753V13.6115H62.4515H62.5393V8.99245H64.8225V13.6115H65.5865H65.6743V8.16699H61.6875V13.6115H61.7753V13.5237Z" fill="#010100"/>
<path d="M66.793 13.5242V8.25537H67.4691V10.521H70.1036V8.25537H70.7797V13.5242H70.1036V11.1532H67.4691V13.5242H66.793Z" fill="#010100"/>
<path d="M66.7909 13.5237H66.8788V8.34262H67.3793V10.6082H70.1894V8.34262H70.6899V13.4359H70.1894V11.0649H67.3793V13.4359H66.7909V13.5237H66.8788H66.7909V13.6115H67.4671H67.5549V11.2405H70.0137V13.6115H70.7777H70.8655V8.16699H70.1015H70.0137V10.4326H67.5549V8.16699H66.7909H66.7031V13.6115H66.7909V13.5237Z" fill="#010100"/>
<path d="M72.9304 12.409C73.1159 12.6 73.3386 12.7508 73.5849 12.852C73.8311 12.9532 74.0956 13.0027 74.3618 12.9974C74.634 13.0093 74.9056 12.963 75.1585 12.8615C75.4114 12.7601 75.6398 12.6058 75.8283 12.409C76.0236 12.2103 76.1765 11.9739 76.2777 11.7143C76.3788 11.4546 76.4261 11.1771 76.4166 10.8986C76.4273 10.6186 76.3806 10.3395 76.2794 10.0782C76.1782 9.81695 76.0247 9.57914 75.8283 9.3794C75.6438 9.18711 75.4212 9.03545 75.1747 8.93414C74.9282 8.83283 74.6633 8.78409 74.3969 8.79105C74.1307 8.78569 73.8663 8.83516 73.62 8.93638C73.3738 9.03759 73.151 9.1884 72.9655 9.3794C72.7596 9.57517 72.5958 9.81085 72.4841 10.0721C72.3724 10.3333 72.3151 10.6145 72.3157 10.8986C72.3066 11.1763 72.3532 11.453 72.4527 11.7124C72.5522 11.9718 72.7027 12.2087 72.8953 12.409H72.9304ZM76.2937 12.8481C76.0455 13.1091 75.7453 13.315 75.4125 13.4527C75.0798 13.5903 74.7218 13.6566 74.3618 13.6472C74.0018 13.6561 73.644 13.5896 73.3113 13.4519C72.9786 13.3143 72.6783 13.1086 72.4298 12.8481C72.1765 12.5918 71.9775 12.2871 71.8447 11.9521C71.7119 11.6171 71.6481 11.2588 71.6571 10.8986C71.6484 10.5371 71.7124 10.1775 71.8451 9.84119C71.9778 9.50484 72.1767 9.19851 72.4298 8.94033C72.6803 8.68235 72.9809 8.47836 73.3131 8.34093C73.6454 8.2035 74.0023 8.13553 74.3618 8.14122C74.7223 8.13347 75.0806 8.20136 75.4133 8.3405C75.7461 8.47965 76.046 8.68698 76.2937 8.94912C76.5482 9.20494 76.7485 9.5094 76.8828 9.84433C77.0171 10.1793 77.0825 10.5378 77.0752 10.8986C77.0825 11.2594 77.0171 11.6179 76.8828 11.9529C76.7485 12.2878 76.5482 12.5923 76.2937 12.8481Z" fill="#010100"/>
<path d="M72.928 12.4088L72.8665 12.4702C73.0597 12.6699 73.292 12.8275 73.5489 12.9332C73.8057 13.039 74.0816 13.0907 74.3594 13.0849C74.6303 13.0921 74.8998 13.0445 75.1518 12.9449C75.4038 12.8453 75.6331 12.6958 75.8259 12.5054C76.0298 12.2989 76.1895 12.0531 76.2952 11.7828C76.4009 11.5125 76.4504 11.2235 76.4406 10.9335C76.4506 10.6421 76.4012 10.3518 76.2955 10.08C76.1899 9.80832 76.0301 9.56091 75.8259 9.35283C75.6321 9.15406 75.3997 8.997 75.1429 8.8913C74.8862 8.78559 74.6106 8.73347 74.333 8.73813C74.0556 8.7345 73.7803 8.78709 73.5237 8.89273C73.2671 8.99838 73.0346 9.15489 72.8402 9.35283C72.6388 9.56252 72.4814 9.81041 72.3774 10.0819C72.2733 10.3534 72.2246 10.6429 72.2343 10.9335C72.2283 11.2246 72.2812 11.5139 72.3899 11.784C72.4985 12.0541 72.6606 12.2995 72.8665 12.5054L72.928 12.4439L72.9895 12.3824C72.8047 12.1904 72.6605 11.9632 72.5655 11.7142C72.4704 11.4653 72.4265 11.1998 72.4362 10.9335C72.4268 10.6659 72.4708 10.3992 72.5658 10.1488C72.6608 9.89851 72.8049 9.66969 72.9895 9.47577C73.1666 9.29252 73.3797 9.14797 73.6155 9.05124C73.8513 8.9545 74.1046 8.90769 74.3594 8.91376C74.6142 8.90716 74.8677 8.95372 75.1035 9.05049C75.3394 9.14725 75.5525 9.29209 75.7293 9.47577C75.9171 9.66779 76.0639 9.89609 76.1605 10.1467C76.2571 10.3974 76.3016 10.6651 76.2913 10.9335C76.3014 11.2006 76.2568 11.4669 76.1602 11.7161C76.0635 11.9653 75.9169 12.1921 75.7293 12.3824C75.5525 12.5661 75.3394 12.711 75.1035 12.8077C74.8677 12.9045 74.6142 12.951 74.3594 12.9444C74.1046 12.9505 73.8513 12.9037 73.6155 12.807C73.3797 12.7102 73.1666 12.5657 72.9895 12.3824L72.928 12.4439V12.4088ZM76.2913 12.8478L76.2298 12.7864C75.99 13.0396 75.6995 13.2394 75.3771 13.3726C75.0548 13.5057 74.708 13.5693 74.3594 13.5591C74.0122 13.5686 73.6668 13.5047 73.346 13.3715C73.0252 13.2384 72.7361 13.039 72.4977 12.7864C72.2502 12.5395 72.0555 12.2448 71.9257 11.9201C71.7958 11.5955 71.7335 11.2479 71.7425 10.8984C71.7316 10.546 71.793 10.1952 71.9229 9.86742C72.0528 9.53969 72.2484 9.24203 72.4977 8.99279C72.7361 8.74021 73.0252 8.54082 73.346 8.40765C73.6668 8.27449 74.0122 8.21055 74.3594 8.22003C74.7083 8.21317 75.0549 8.27914 75.377 8.4137C75.699 8.54827 75.9895 8.74848 76.2298 9.00157C76.4745 9.25054 76.6673 9.54566 76.7969 9.86978C76.9266 10.1939 76.9905 10.5405 76.985 10.8896C76.9905 11.2386 76.9266 11.5853 76.7969 11.9094C76.6673 12.2335 76.4745 12.5286 76.2298 12.7776L76.2913 12.8391L76.3615 12.9005C76.6214 12.6351 76.8259 12.3206 76.9631 11.9753C77.1003 11.6301 77.1674 11.261 77.1606 10.8896C77.1683 10.5173 77.1007 10.1473 76.9618 9.8017C76.823 9.45615 76.6158 9.14219 76.3528 8.87863C76.1023 8.59859 75.7949 8.37535 75.4511 8.22389C75.1073 8.07243 74.735 7.99626 74.3594 8.00049C73.9882 7.99341 73.6195 8.06307 73.2765 8.20511C72.9335 8.34715 72.6235 8.55852 72.366 8.82595C72.1066 9.0936 71.9026 9.40973 71.7654 9.75629C71.6283 10.1028 71.5608 10.473 71.5669 10.8457C71.5601 11.2171 71.6272 11.5862 71.7644 11.9314C71.9016 12.2767 72.1061 12.5912 72.366 12.8566C72.6212 13.1271 72.9307 13.3405 73.2743 13.4828C73.6179 13.6251 73.9877 13.693 74.3594 13.6821C74.7321 13.6909 75.1026 13.6221 75.4473 13.48C75.792 13.3379 76.1033 13.1256 76.3615 12.8566L76.2913 12.7952V12.8478Z" fill="#010100"/>
<path d="M80.516 12.8826H81.8771C81.9962 12.8878 82.115 12.866 82.2245 12.8189C82.334 12.7718 82.4314 12.7005 82.5094 12.6103C82.6642 12.4498 82.7521 12.2363 82.7553 12.0132C82.7476 11.792 82.6566 11.5819 82.5006 11.4248C82.417 11.3371 82.316 11.2676 82.2042 11.2207C82.0924 11.1739 81.972 11.1507 81.8508 11.1526H80.516V12.9089V12.8826ZM80.516 10.5204H81.7454C81.8601 10.524 81.9742 10.5032 82.0802 10.4592C82.1862 10.4153 82.2816 10.3494 82.3601 10.2657C82.4327 10.193 82.4902 10.1067 82.5293 10.0118C82.5685 9.91688 82.5886 9.81516 82.5884 9.71247C82.5883 9.50684 82.5098 9.30899 82.3689 9.15924C82.2938 9.07602 82.2015 9.01013 82.0984 8.96616C81.9953 8.92219 81.8838 8.90117 81.7718 8.90458H80.516V10.5204ZM79.8398 13.5324V8.26353H81.7454C82.1412 8.25515 82.525 8.39986 82.8168 8.66748C82.963 8.79521 83.0797 8.95331 83.1585 9.13076C83.2374 9.30822 83.2766 9.50074 83.2734 9.6949C83.2779 9.93034 83.2071 10.1611 83.0714 10.3535C82.9468 10.5487 82.7663 10.7017 82.5533 10.7926C82.8075 10.8779 83.0307 11.0368 83.1944 11.2492C83.3626 11.4647 83.4524 11.7311 83.449 12.0044C83.4535 12.2069 83.4133 12.4078 83.3314 12.593C83.2494 12.7781 83.1277 12.943 82.9748 13.0758C82.6676 13.3555 82.2663 13.5092 81.8508 13.506L79.8398 13.5324Z" fill="#010100"/>
<path d="M80.513 12.8829V12.9707H81.8741C82.0057 12.9734 82.1363 12.9482 82.2574 12.8967C82.3785 12.8453 82.4873 12.7687 82.5766 12.6721C82.7412 12.4917 82.8348 12.2577 82.8401 12.0135C82.8352 11.7702 82.7379 11.5378 82.5678 11.3637C82.4765 11.2648 82.3649 11.1869 82.2406 11.1354C82.1162 11.0838 81.9822 11.0599 81.8478 11.0651H80.4252V12.9707H80.513V12.8829H80.6008V11.2407H81.8478C81.9571 11.2358 82.0662 11.2544 82.1677 11.2953C82.2692 11.3362 82.3608 11.3985 82.4361 11.4778C82.5077 11.5476 82.5648 11.6308 82.604 11.7228C82.6432 11.8147 82.6637 11.9136 82.6644 12.0135C82.6625 12.2136 82.584 12.4053 82.4449 12.5492C82.3742 12.6302 82.2862 12.6943 82.1874 12.7369C82.0886 12.7794 81.9816 12.7993 81.8741 12.7951H80.513V12.8829ZM80.513 10.5207V10.6085H81.7424C81.8687 10.613 81.9945 10.5903 82.1112 10.5418C82.2279 10.4933 82.3327 10.4202 82.4186 10.3275C82.5808 10.1639 82.6723 9.94314 82.6732 9.71277C82.6746 9.48364 82.5864 9.26304 82.4273 9.09807C82.3435 9.00759 82.2415 8.9358 82.128 8.88739C82.0145 8.83897 81.8921 8.81501 81.7687 8.81706H80.4252V10.5734H80.513V10.4855H80.6008V8.99269H81.7687C81.8678 8.99035 81.9663 9.00955 82.0573 9.04897C82.1482 9.08839 82.2296 9.14709 82.2956 9.22101C82.3604 9.28538 82.4116 9.36205 82.4463 9.4465C82.4809 9.53095 82.4984 9.62148 82.4976 9.71277C82.4964 9.89663 82.424 10.0729 82.2956 10.2045C82.2255 10.2805 82.1397 10.3403 82.0442 10.3797C81.9486 10.4191 81.8456 10.4373 81.7424 10.4328H80.513V10.5207ZM79.8368 13.5327H79.9246V8.35165H81.7424C82.1169 8.34155 82.4801 8.48052 82.7523 8.73803C82.8897 8.85633 82.9995 9.00338 83.0738 9.16878C83.1482 9.33418 83.1853 9.51389 83.1825 9.69521C83.1877 9.91446 83.1231 10.1297 82.9981 10.3099C82.8755 10.4848 82.7089 10.6241 82.5152 10.7139H82.4625V10.8544H82.5239C82.7619 10.9295 82.9706 11.0768 83.1211 11.2759C83.2792 11.4754 83.363 11.7238 83.3582 11.9784C83.3617 12.1692 83.3234 12.3584 83.246 12.5329C83.1687 12.7073 83.0541 12.8628 82.9103 12.9882C82.6189 13.2507 82.2399 13.3948 81.8478 13.3922H79.8368V13.48V13.5678H81.8478C82.284 13.5719 82.7052 13.4084 83.0245 13.1112C83.1871 12.9711 83.317 12.7971 83.405 12.6014C83.493 12.4056 83.537 12.193 83.5338 11.9784C83.5365 11.6861 83.4406 11.4015 83.2616 11.1705C83.0893 10.9419 82.8498 10.773 82.5766 10.6875V10.7665H82.6644H82.5766V10.8456C82.8021 10.7434 82.9962 10.5827 83.1386 10.3802C83.2805 10.1704 83.3541 9.92201 83.3494 9.66886C83.3464 9.46633 83.3002 9.26676 83.2139 9.08352C83.1276 8.90027 83.0031 8.73758 82.8488 8.60631C82.5404 8.32293 82.1348 8.16889 81.716 8.17602H79.7227V13.6205H79.8105V13.5327H79.8368Z" fill="#010100"/>
<path d="M92.8697 28.461H94.5118V17.4841H92.8697V28.461ZM107.631 21.4358L105.752 26.1953H105.682L103.732 21.4358H101.976L104.9 28.0833L103.241 31.8242H104.944L109.449 21.4709L107.631 21.4358ZM98.3405 27.214C97.8049 27.214 97.0496 26.9418 97.0496 26.2832C97.0496 25.405 97.9893 25.1064 98.8059 25.1064C99.3304 25.0937 99.8487 25.221 100.308 25.4753C100.25 25.9544 100.021 26.3964 99.6625 26.7194C99.304 27.0424 98.8406 27.2243 98.3581 27.2315L98.3405 27.214ZM98.5337 21.1987C97.9359 21.163 97.3406 21.3027 96.8211 21.6006C96.3016 21.8986 95.8805 22.3419 95.6095 22.876L97.0672 23.4819C97.2101 23.2162 97.4275 22.9982 97.6928 22.8546C97.9581 22.7111 98.2595 22.6483 98.5601 22.674C98.7685 22.6496 98.9797 22.667 99.1814 22.7252C99.3831 22.7834 99.5711 22.8811 99.7346 23.0127C99.8981 23.1443 100.034 23.3071 100.134 23.4917C100.233 23.6763 100.296 23.8789 100.316 24.0878V24.202C99.7752 23.9174 99.1715 23.7725 98.5601 23.7804C96.997 23.7804 95.3987 24.6586 95.3987 26.248C95.4131 26.5873 95.4956 26.9203 95.6413 27.227C95.7871 27.5338 95.9932 27.808 96.2472 28.0334C96.5013 28.2587 96.7981 28.4306 97.1201 28.5388C97.442 28.6469 97.7824 28.6892 98.121 28.6629C98.5335 28.6885 98.9452 28.6025 99.313 28.414C99.6807 28.2255 99.9909 27.9414 100.211 27.5916H100.272V28.4697H101.853V24.2546C101.853 22.3052 100.395 21.225 98.5162 21.225L98.5337 21.1987ZM88.4087 22.7706H86.0816V19.0121H88.4087C88.6585 19.0086 88.9066 19.0546 89.1386 19.1472C89.3707 19.2399 89.5821 19.3775 89.7608 19.5521C89.9395 19.7267 90.0819 19.9349 90.1799 20.1648C90.2779 20.3946 90.3296 20.6415 90.3318 20.8913C90.3249 21.3952 90.1187 21.8758 89.7583 22.228C89.3978 22.5802 88.9126 22.7753 88.4087 22.7706ZM88.4087 17.5017H84.4834V28.4785H86.1255V24.3161H88.4087C89.3374 24.3397 90.2377 23.9945 90.9124 23.3559C91.5872 22.7174 91.9815 21.8375 92.0091 20.9089C91.9815 19.9803 91.5872 19.1004 90.9124 18.4619C90.2377 17.8233 89.3374 17.4781 88.4087 17.5017ZM66.9557 27.214C66.6704 27.2062 66.3896 27.1414 66.1297 27.0236C65.8698 26.9057 65.636 26.7372 65.4422 26.5277C65.2483 26.3183 65.0982 26.0723 65.0007 25.8041C64.9032 25.5359 64.8603 25.251 64.8745 24.9659C64.8591 24.6789 64.901 24.3917 64.9976 24.1209C65.0942 23.8502 65.2437 23.6014 65.4374 23.3889C65.631 23.1765 65.865 23.0047 66.1256 22.8834C66.3863 22.7622 66.6684 22.694 66.9557 22.6828C67.2381 22.6971 67.5148 22.7681 67.7692 22.8916C68.0237 23.015 68.2507 23.1885 68.4367 23.4015C68.6227 23.6146 68.7639 23.8629 68.8519 24.1316C68.9399 24.4004 68.973 24.6841 68.949 24.9659C68.9705 25.2454 68.9355 25.5264 68.8462 25.7921C68.7568 26.0578 68.6149 26.3028 68.429 26.5126C68.243 26.7223 68.0167 26.8925 67.7636 27.013C67.5105 27.1335 67.2357 27.2019 66.9557 27.214ZM68.7998 22.0505C68.5483 21.7818 68.2434 21.5687 67.9046 21.425C67.5658 21.2813 67.2007 21.2102 66.8327 21.2163C65.8645 21.2506 64.9479 21.6618 64.2786 22.3623C63.6093 23.0628 63.2401 23.9971 63.2499 24.9659C63.2449 25.93 63.6166 26.8579 64.2859 27.5518C64.9552 28.2457 65.8691 28.6507 66.8327 28.6805C67.2046 28.685 67.573 28.6088 67.9126 28.4572C68.2521 28.3056 68.5548 28.0822 68.7998 27.8023V28.338C68.7998 29.7694 68.0358 30.5334 66.8064 30.5334C66.3959 30.5231 65.9978 30.3906 65.663 30.1528C65.3283 29.915 65.072 29.5828 64.9271 29.1986L63.4958 29.7957C63.7652 30.4511 64.2243 31.0111 64.8142 31.4038C65.404 31.7965 66.0978 32.0041 66.8064 31.9999C68.7295 31.9999 70.319 30.8671 70.319 28.1097V21.4095H68.7998V22.0154V22.0505ZM71.4869 28.461H73.1905V17.4841H71.522V28.461H71.4869ZM75.5878 24.7991C75.5749 24.5268 75.6165 24.2546 75.7102 23.9986C75.8039 23.7425 75.9478 23.5078 76.1335 23.3082C76.3192 23.1086 76.543 22.9481 76.7916 22.8362C77.0402 22.7242 77.3086 22.6631 77.5812 22.6564C77.8645 22.6378 78.147 22.7027 78.3936 22.8432C78.6403 22.9837 78.8402 23.1936 78.9687 23.4467L75.5878 24.7991ZM80.681 23.5521C80.4506 22.88 80.0217 22.2936 79.451 21.8703C78.8803 21.447 78.1947 21.2067 77.4846 21.1811C77.0043 21.1802 76.5288 21.2778 76.0877 21.4679C75.6466 21.658 75.2491 21.9365 74.9199 22.2863C74.5907 22.6361 74.3367 23.0497 74.1737 23.5015C74.0106 23.9534 73.942 24.4338 73.972 24.9132C73.9601 25.4044 74.0476 25.8929 74.2293 26.3493C74.411 26.8057 74.6831 27.2208 75.0292 27.5694C75.3754 27.918 75.7885 28.193 76.2436 28.3779C76.6988 28.5628 77.1866 28.6538 77.6778 28.6454C78.2921 28.6487 78.8976 28.4996 79.4401 28.2115C79.9826 27.9234 80.4452 27.5052 80.7864 26.9945L79.5131 26.1163C79.3237 26.4337 79.0548 26.6962 78.733 26.878C78.4111 27.0597 78.0474 27.1543 77.6778 27.1525C77.2976 27.1776 76.9184 27.0892 76.5885 26.8984C76.2587 26.7077 75.9929 26.4232 75.8249 26.0812L80.8216 24.0175L80.6547 23.5873L80.681 23.5521ZM40.8923 22.3227V23.9209H44.6859C44.6264 24.6654 44.317 25.3679 43.8078 25.9143C43.4292 26.3023 42.9731 26.606 42.4693 26.8057C41.9654 27.0055 41.4251 27.0967 40.8836 27.0735C40.3325 27.0735 39.7869 26.9641 39.2784 26.7517C38.7699 26.5392 38.3087 26.2279 37.9215 25.8358C37.5343 25.4437 37.2288 24.9786 37.0228 24.4675C36.8167 23.9564 36.7142 23.4094 36.7212 22.8584C36.7142 22.3074 36.8167 21.7604 37.0228 21.2493C37.2288 20.7382 37.5343 20.2731 37.9215 19.881C38.3087 19.4889 38.7699 19.1776 39.2784 18.9651C39.7869 18.7526 40.3325 18.6433 40.8836 18.6433C41.9474 18.6276 42.974 19.0351 43.7375 19.7761L44.8616 18.6521C44.3379 18.1348 43.7164 17.7271 43.0334 17.4527C42.3504 17.1783 41.6195 17.0427 40.8836 17.0539C39.3367 17.0537 37.8521 17.6627 36.7509 18.7491C35.6498 19.8354 35.0208 21.3117 35 22.8584C35.0208 24.4043 35.6501 25.8796 36.7515 26.9646C37.8529 28.0495 39.3375 28.6566 40.8836 28.6541C41.6352 28.6881 42.3854 28.5607 43.0837 28.2805C43.782 28.0002 44.4122 27.5737 44.9318 27.0296C45.8518 26.0188 46.343 24.69 46.3017 23.3238C46.3066 22.9909 46.2772 22.6584 46.2139 22.3315L40.8923 22.3227ZM50.6222 27.1789C50.3339 27.1722 50.0498 27.1078 49.7868 26.9896C49.5237 26.8714 49.287 26.7017 49.0906 26.4906C48.8942 26.2794 48.742 26.031 48.6431 25.7601C48.5442 25.4893 48.5005 25.2013 48.5146 24.9132C48.4993 24.6249 48.5421 24.3364 48.6405 24.065C48.739 23.7936 48.8911 23.5448 49.0878 23.3333C49.2844 23.1219 49.5216 22.9523 49.7852 22.8345C50.0489 22.7167 50.3335 22.6531 50.6222 22.6476C50.9109 22.6531 51.1955 22.7167 51.4591 22.8345C51.7227 22.9523 51.9599 23.1219 52.1566 23.3333C52.3533 23.5448 52.5053 23.7936 52.6038 24.065C52.7023 24.3364 52.7451 24.6249 52.7297 24.9132C52.7439 25.2013 52.7002 25.4893 52.6013 25.7601C52.5024 26.031 52.3502 26.2794 52.1538 26.4906C51.9574 26.7017 51.7206 26.8714 51.4576 26.9896C51.1945 27.1078 50.9105 27.1722 50.6222 27.1789ZM50.6222 21.1811C50.1234 21.1679 49.6272 21.2562 49.1637 21.4407C48.7002 21.6253 48.279 21.9021 47.9258 22.2545C47.5726 22.6069 47.2948 23.0274 47.1092 23.4905C46.9236 23.9536 46.8341 24.4496 46.8462 24.9484C46.8402 25.4416 46.9333 25.931 47.1198 26.3877C47.3064 26.8443 47.5827 27.2589 47.9323 27.6069C48.2819 27.9548 48.6978 28.2292 49.1553 28.4136C49.6128 28.598 50.1026 28.6887 50.5958 28.6805C51.089 28.6887 51.5789 28.598 52.0364 28.4136C52.4939 28.2292 52.9098 27.9548 53.2594 27.6069C53.609 27.2589 53.8853 26.8443 54.0718 26.3877C54.2584 25.931 54.3515 25.4416 54.3455 24.9484C54.3527 24.4548 54.2604 23.9648 54.0743 23.5076C53.8882 23.0505 53.612 22.6354 53.2621 22.2872C52.9122 21.9389 52.4959 21.6647 52.0378 21.4807C51.5798 21.2967 51.0894 21.2068 50.5958 21.2163L50.6222 21.1811ZM58.7977 27.1789C58.5094 27.1722 58.2253 27.1078 57.9623 26.9896C57.6992 26.8714 57.4625 26.7017 57.2661 26.4906C57.0697 26.2794 56.9175 26.031 56.8186 25.7601C56.7197 25.4893 56.676 25.2013 56.6902 24.9132C56.6748 24.6249 56.7176 24.3364 56.8161 24.065C56.9145 23.7936 57.0666 23.5448 57.2633 23.3333C57.46 23.1219 57.6972 22.9523 57.9608 22.8345C58.2244 22.7167 58.509 22.6531 58.7977 22.6476C59.0888 22.6541 59.3755 22.7195 59.6406 22.84C59.9056 22.9605 60.1435 23.1335 60.3397 23.3486C60.5359 23.5637 60.6864 23.8164 60.7821 24.0914C60.8778 24.3664 60.9167 24.6579 60.8965 24.9484C60.9106 25.2364 60.8669 25.5244 60.768 25.7953C60.6691 26.0662 60.5169 26.3145 60.3205 26.5257C60.1241 26.7368 59.8874 26.9065 59.6243 27.0247C59.3613 27.143 59.0772 27.2073 58.7889 27.214L58.7977 27.1789ZM58.7977 21.1811C58.3042 21.1717 57.8138 21.2616 57.3557 21.4456C56.8976 21.6295 56.4813 21.9038 56.1314 22.252C55.7816 22.6003 55.5053 23.0153 55.3192 23.4725C55.1331 23.9297 55.0409 24.4197 55.048 24.9132C55.0421 25.4065 55.1351 25.8959 55.3217 26.3525C55.5083 26.8092 55.7845 27.2238 56.1341 27.5717C56.4838 27.9197 56.8996 28.194 57.3571 28.3784C57.8146 28.5629 58.3045 28.6536 58.7977 28.6454C59.2909 28.6536 59.7808 28.5629 60.2383 28.3784C60.6958 28.194 61.1116 27.9197 61.4613 27.5717C61.8109 27.2238 62.0871 26.8092 62.2737 26.3525C62.4603 25.8959 62.5533 25.4065 62.5474 24.9132C62.5545 24.4197 62.4623 23.9297 62.2762 23.4725C62.0901 23.0153 61.8138 22.6003 61.464 22.252C61.1141 21.9038 60.6978 21.6295 60.2397 21.4456C59.7816 21.2616 59.2912 21.1717 58.7977 21.1811Z" fill="#010100"/>
<path d="M10.4 9.06055C10.16 9.30055 10 9.70055 10 10.1805V27.8605C10 28.3405 10.16 28.7405 10.4 28.9805L10.48 29.0605L20.4 19.1405V19.0605V18.9805L10.4 9.06055Z" fill="url(#paint0_linear_3589_2765)"/>
<path d="M23.6784 22.5007L20.3984 19.2207V19.0607V18.9807L23.6784 15.7007L23.7584 15.7807L27.6784 18.0207C28.7984 18.6607 28.7984 19.7007 27.6784 20.3407L23.6784 22.5007Z" fill="url(#paint1_linear_3589_2765)"/>
<path d="M23.7584 22.4205L20.3984 19.0605L10.3984 29.0605C10.7984 29.4605 11.3584 29.4605 12.0784 29.1405L23.7584 22.4205Z" fill="url(#paint2_linear_3589_2765)"/>
<path d="M23.7584 15.7008L12.0784 9.06083C11.3584 8.66083 10.7984 8.74083 10.3984 9.14083L20.3984 19.0608L23.7584 15.7008Z" fill="url(#paint3_linear_3589_2765)"/>
<path opacity="0.2" d="M23.6784 22.3408L12.0784 28.9008C11.4384 29.3008 10.8784 29.2208 10.4784 28.9008L10.3984 28.9808L10.4784 29.0608C10.8784 29.3808 11.4384 29.4608 12.0784 29.0608L23.6784 22.3408Z" fill="black"/>
<path opacity="0.12" d="M10.3981 28.9008C10.1581 28.6608 10.0781 28.2608 10.0781 27.7808V27.8608C10.0781 28.3408 10.2381 28.7408 10.4781 28.9808V28.9008H10.3981Z" fill="black"/>
<path opacity="0.12" d="M27.6797 20.1005L23.6797 22.3405L23.7597 22.4205L27.6797 20.1805C28.2397 19.8605 28.4797 19.4605 28.4797 19.0605C28.4797 19.4605 28.1597 19.7805 27.6797 20.1005Z" fill="black"/>
<path opacity="0.25" d="M12.0781 9.14084L27.6781 18.0208C28.1581 18.3408 28.4781 18.6608 28.4781 19.0608C28.4781 18.6608 28.2381 18.2608 27.6781 17.9408L12.0781 9.06084C10.9581 8.42084 10.0781 8.98084 10.0781 10.2608V10.3408C10.0781 9.06084 10.9581 8.50084 12.0781 9.14084Z" fill="white"/>
<defs>
<linearGradient id="paint0_linear_3589_2765" x1="19.5198" y1="10.0283" x2="6.09384" y2="23.4542" gradientUnits="userSpaceOnUse">
<stop stop-color="#00A0FF"/>
<stop offset="0.00657445" stop-color="#00A1FF"/>
<stop offset="0.2601" stop-color="#00BEFF"/>
<stop offset="0.5122" stop-color="#00D2FF"/>
<stop offset="0.7604" stop-color="#00DFFF"/>
<stop offset="1" stop-color="#00E3FF"/>
</linearGradient>
<linearGradient id="paint1_linear_3589_2765" x1="29.146" y1="19.0618" x2="9.78844" y2="19.0618" gradientUnits="userSpaceOnUse">
<stop stop-color="#FFE000"/>
<stop offset="0.4087" stop-color="#FFBD00"/>
<stop offset="0.7754" stop-color="#FFA500"/>
<stop offset="1" stop-color="#FF9C00"/>
</linearGradient>
<linearGradient id="paint2_linear_3589_2765" x1="21.94" y1="20.8974" x2="3.7334" y2="39.1041" gradientUnits="userSpaceOnUse">
<stop stop-color="#FF3A44"/>
<stop offset="1" stop-color="#C31162"/>
</linearGradient>
<linearGradient id="paint3_linear_3589_2765" x1="7.91628" y1="3.20179" x2="16.0464" y2="11.3318" gradientUnits="userSpaceOnUse">
<stop stop-color="#32A071"/>
<stop offset="0.0685" stop-color="#2DA771"/>
<stop offset="0.4762" stop-color="#15CF74"/>
<stop offset="0.8009" stop-color="#06E775"/>
<stop offset="1" stop-color="#00F076"/>
</linearGradient>
</defs>
</svg>
