<svg width="156" height="19" viewBox="0 0 156 19" fill="none" xmlns="http://www.w3.org/2000/svg">
<path d="M97.1891 0.00683594C92.7161 0.00683594 88.7891 3.63034 88.7891 8.10314V18.004H92.3911V14.4017H101.988V18.004H105.59V8.10314C105.59 3.63034 101.662 0.00683594 97.1891 0.00683594ZM101.988 10.8065H92.3911V8.11014C92.3911 5.62614 94.7051 3.60911 97.1891 3.60911C99.6731 3.60911 101.988 5.62614 101.988 8.11014V10.8065Z" fill="#FF5722"/>
<path d="M146.987 0.00683594C142.514 0.00683594 138.586 3.63034 138.586 8.10314V18.004H142.189V14.4017H151.785V18.004H155.387V8.10314C155.387 3.63034 151.46 0.00683594 146.987 0.00683594ZM151.785 10.8065H142.189V8.11014C142.189 5.62614 144.503 3.60911 146.987 3.60911C149.471 3.60911 151.785 5.62614 151.785 8.11014V10.8065Z" fill="#FF5722"/>
<path d="M60.5956 0.00683594C55.6277 0.00683594 51.5938 4.03374 51.5938 9.00894C51.5938 13.9771 55.6206 18.011 60.5956 18.011C65.5637 18.011 69.5977 13.9842 69.5977 9.00894C69.5977 4.03374 65.5637 0.00683594 60.5956 0.00683594ZM60.5956 14.4017C57.6164 14.4017 55.1961 11.9813 55.1961 9.00194C55.1961 6.02244 57.6164 3.60203 60.5956 3.60203C63.5756 3.60203 65.9957 6.02244 65.9957 9.00194C65.9957 11.9884 63.5756 14.4017 60.5956 14.4017Z" fill="#1976D2"/>
<path d="M47.7763 8.05378C48.2222 7.26818 48.477 6.36948 48.477 5.39988C48.477 2.42039 46.0566 0 43.0771 0H36V17.9972H44.8818C47.8613 17.9972 50.2816 15.5768 50.2816 12.5973C50.2746 10.6936 49.2767 9.01628 47.7763 8.05378ZM39.5952 3.60227H43.0771C44.0679 3.60227 44.8747 4.40908 44.8747 5.39988C44.8747 6.39068 44.0679 7.19748 43.0771 7.19748H39.5952V3.60227ZM44.8747 14.402H39.5952V10.7997H44.8747C45.8655 10.7997 46.6723 11.6065 46.6723 12.5973C46.6723 13.5881 45.8655 14.402 44.8747 14.402Z" fill="#1976D2"/>
<path d="M24.8966 0.00683594C19.9285 0.00683594 15.8945 4.03374 15.8945 9.00894C15.8945 13.9771 19.9214 18.011 24.8966 18.011C29.8719 18.011 33.8988 13.9842 33.8988 9.00894C33.8988 4.03374 29.8648 0.00683594 24.8966 0.00683594ZM24.8966 14.4017C21.9172 14.4017 19.4968 11.9813 19.4968 9.00194C19.4968 6.02244 21.9172 3.60203 24.8966 3.60203C27.8761 3.60203 30.2965 6.02244 30.2965 9.00194C30.2965 11.9884 27.8761 14.4017 24.8966 14.4017Z" fill="#1976D2"/>
<path d="M116.97 7.23964L116.991 7.20434H112.794C111.803 7.20434 110.997 6.39754 110.997 5.40674C110.997 4.41594 111.803 3.60911 112.794 3.60911H119.39L121.789 0.00683594H112.787C109.808 0.00683594 107.387 2.42723 107.387 5.40674C107.387 8.19514 109.496 10.4881 112.207 10.7711L112.186 10.8065H116.382C117.373 10.8065 118.18 11.6133 118.18 12.6041C118.18 13.5949 117.373 14.4017 116.382 14.4017H109.786L107.387 18.004H116.389C119.369 18.004 121.789 15.5836 121.789 12.6041C121.789 9.81574 119.673 7.52274 116.97 7.23964Z" fill="#FF5722"/>
<path d="M127.787 0.00683594C124.807 0.00683594 122.387 2.42723 122.387 5.40674C122.387 8.19514 124.496 10.4881 127.206 10.7711L127.185 10.8065H131.382C132.373 10.8065 133.18 11.6133 133.18 12.6041C133.18 13.5949 132.373 14.4017 131.382 14.4017H124.786L122.387 18.004H131.389C134.368 18.004 136.789 15.5836 136.789 12.6041C136.789 9.81574 134.68 7.52274 131.969 7.23964L131.991 7.20434H127.794C126.803 7.20434 125.996 6.39754 125.996 5.40674C125.996 4.41594 126.803 3.60911 127.794 3.60911H134.39L136.789 0.00683594H127.787Z" fill="#FF5722"/>
<path d="M86.8091 0.00683594L79.4491 7.84124L86.9931 17.9969H82.7961L77.0571 10.3819L75.5991 12.1229V17.9898H71.9961V0.00683594H75.5991V7.10524L82.0881 0.00683594H86.8091Z" fill="#FF5722"/>
<path d="M3.6023 18.004H0V0.00683594H8.4784C9.9929 0.00683594 11.2951 0.523476 12.3921 1.56382C13.5103 2.61831 14.3808 4.16824 14.402 5.70394C14.4161 7.09814 14.0835 8.23044 13.1989 9.30624C12.3567 10.3465 11.5004 11.1321 10.1982 11.4081L14.6992 18.004H10.5025L6.2704 11.7761C6.1005 11.5425 5.8316 11.4081 5.5414 11.4081H3.6023V18.004ZM3.6023 8.10314H8.4006C9.724 8.10314 10.7997 7.02734 10.7997 5.70394C10.7997 4.38054 9.724 3.30479 8.4006 3.30479H3.6023V8.10314Z" fill="#1976D2"/>
</svg>
