<svg xmlns="http://www.w3.org/2000/svg" width="31" height="30" viewBox="0 0 31 30">
    <g fill="none" fill-rule="evenodd">
        <path fill="#36BDF7" d="M30.428 14.998c0 8.284-6.716 15-15 15-8.285 0-15-6.716-15-15 0-8.283 6.715-15 15-15 8.284 0 15 6.717 15 15"/>
        <path fill="#FFF" d="M22.676 11.205c.023.096.036.25.036.465 0 1.714-.417 3.369-1.25 4.964-.856 1.69-2.059 3.035-3.606 4.034-1.69 1.119-3.63 1.679-5.82 1.679-2.096 0-4.012-.56-5.75-1.679.262.024.56.036.893.036 1.737 0 3.297-.535 4.678-1.606-.833 0-1.566-.245-2.197-.733a3.716 3.716 0 0 1-1.302-1.839c.237.024.464.035.677.035.334 0 .666-.035 1-.106a3.775 3.775 0 0 1-2.142-1.321 3.599 3.599 0 0 1-.857-2.358v-.071c.523.31 1.083.477 1.678.5A4.144 4.144 0 0 1 7.5 11.849a3.61 3.61 0 0 1-.464-1.804c0-.654.18-1.279.536-1.875a10.326 10.326 0 0 0 3.41 2.786c1.344.69 2.78 1.07 4.302 1.143a5.293 5.293 0 0 1-.07-.858c0-.666.165-1.291.5-1.875a3.656 3.656 0 0 1 1.357-1.374 3.61 3.61 0 0 1 1.856-.5 3.58 3.58 0 0 1 1.518.321c.463.214.875.5 1.232.857a7.608 7.608 0 0 0 2.392-.893c-.286.881-.833 1.572-1.643 2.072a8.022 8.022 0 0 0 2.143-.608 8.216 8.216 0 0 1-1.893 1.964"/>
    </g>
</svg>
