<svg xmlns="http://www.w3.org/2000/svg" width="31" height="31" viewBox="0 0 31 31">
    <g fill="none" fill-rule="evenodd">
        <path fill="#36BDF7" d="M30.459 15.645c0 8.282-6.716 15-15 15-8.284 0-15-6.718-15-15 0-8.284 6.716-15 15-15 8.284 0 15 6.716 15 15"/>
        <path fill="#FFF" d="M23.78 13.423a92.871 92.871 0 0 1-1.287 2.07c-.428.62-.654.942-.678.965-.143.214-.214.381-.214.5 0 .12.071.262.214.428l.321.357c1.715 1.762 2.68 2.977 2.893 3.643.071.285.042.506-.089.66-.13.155-.34.232-.625.232h-2.107c-.262 0-.5-.083-.714-.25-.143-.094-.399-.35-.768-.767a25.315 25.315 0 0 0-.982-1.054c-.953-.904-1.655-1.356-2.107-1.356-.19 0-.327.035-.41.106-.084.071-.125.227-.125.465-.025.166-.036.535-.036 1.106v.93c.023.284-.048.487-.214.606-.215.143-.643.214-1.286.214-1.12 0-2.249-.333-3.392-1-1.143-.666-2.143-1.618-3-2.856a21.39 21.39 0 0 1-2.035-3.32 21.353 21.353 0 0 1-1.036-2.394c-.166-.595-.25-1.012-.25-1.25 0-.404.238-.606.715-.606h2.106c.262 0 .458.06.59.178.13.12.243.333.34.643.332.952.736 1.881 1.213 2.785.428.834.857 1.512 1.285 2.035.428.525.762.786 1 .786.143 0 .244-.053.303-.16.06-.108.09-.316.09-.626v-3.106a2.578 2.578 0 0 0-.25-1 2.41 2.41 0 0 0-.357-.554c-.167-.2-.25-.368-.25-.5 0-.13.054-.243.161-.339a.548.548 0 0 1 .375-.142h3.32c.215 0 .363.06.447.178.083.12.125.322.125.607v4.142c0 .214.036.37.107.464a.322.322 0 0 0 .268.144.776.776 0 0 0 .375-.125c.142-.084.333-.256.571-.519.452-.5.904-1.118 1.357-1.856.31-.524.607-1.095.893-1.714l.357-.715c.166-.404.464-.606.892-.606h2.107c.572 0 .786.261.643.785-.07.357-.357.953-.857 1.786"/>
    </g>
</svg>
