<svg xmlns="http://www.w3.org/2000/svg" xmlns:xlink="http://www.w3.org/1999/xlink" width="14" height="14" viewBox="0 0 14 14" shape-rendering="crispEdges">
    <defs>
        <path id="a" d="M7 1.519c-.91 0-1.745-.319-2.402-.851A7.003 7.003 0 0 0 0 7.246h14A7.003 7.003 0 0 0 9.402.668 3.799 3.799 0 0 1 7 1.519z"/>
        <path id="c" d="M.818 3.182a3.182 3.182 0 1 0 6.363-.001 3.182 3.182 0 0 0-6.363.001z"/>
    </defs>
    <g fill="none" fill-rule="evenodd">
        <g transform="translate(0 6)">
            <mask id="b" fill="#fff">
                <use xlink:href="#a"/>
            </mask>
            <path fill="#35BDF7" d="M-5 12.246h24V-4.331H-5z" mask="url(#b)"/>
        </g>
        <g transform="translate(2.8)">
            <mask id="d" fill="#fff">
                <use xlink:href="#c"/>
            </mask>
            <path fill="#35BDF7" d="M-4.182 11.364h16.363V-5H-4.182z" mask="url(#d)"/>
        </g>
    </g>
</svg>
